# Blender 4.0.2
# www.blender.org
o dreidel
v -0.012500 0.034885 -0.012500
v -0.012500 0.015532 -0.006250
v -0.012500 0.013630 0.000000
v -0.012500 0.015532 0.006250
v -0.012500 0.034885 0.006250
v -0.012500 0.034885 0.000000
v -0.012500 0.034885 -0.006250
v -0.012500 0.021183 0.012500
v -0.012500 0.034885 0.012500
v 0.012500 0.021183 0.012500
v 0.012500 0.034885 0.012500
v -0.006250 0.015532 0.012500
v 0.000000 0.013630 0.012500
v 0.006250 0.015532 0.012500
v 0.006250 0.034885 0.012500
v 0.000000 0.034885 0.012500
v -0.006250 0.034885 0.012500
v 0.012500 0.034885 -0.012500
v 0.012500 0.015532 0.006250
v 0.012500 0.013630 0.000000
v 0.012500 0.015532 -0.006250
v 0.012500 0.034885 -0.006250
v 0.012500 0.034885 0.000000
v 0.012500 0.034885 0.006250
v 0.012500 0.021183 -0.012500
v -0.012500 0.021183 -0.012500
v 0.006250 0.015532 -0.012500
v 0.000000 0.013630 -0.012500
v -0.006250 0.015532 -0.012500
v -0.006250 0.034885 -0.012500
v 0.000000 0.034885 -0.012500
v 0.006250 0.034885 -0.012500
v -0.004322 0.002157 -0.001843
v -0.004480 0.002117 -0.000000
v -0.004322 0.002157 0.001843
v -0.003603 0.002269 0.003603
v 0.003603 0.002269 0.003603
v -0.001843 0.002157 0.004322
v 0.000000 0.002117 0.004480
v 0.001843 0.002157 0.004322
v 0.004322 0.002157 0.001843
v 0.004480 0.002117 0.000000
v 0.004322 0.002157 -0.001843
v 0.003603 0.002269 -0.003603
v -0.003603 0.002269 -0.003603
v 0.001843 0.002157 -0.004322
v 0.000000 0.002117 -0.004480
v -0.001843 0.002157 -0.004322
v -0.007997 0.005423 -0.000000
v -0.007877 0.005747 -0.003695
v 0.000000 0.005423 -0.007997
v 0.003695 0.005747 -0.007877
v -0.007877 0.005747 0.003695
v -0.007326 0.006670 0.007326
v -0.003695 0.005747 -0.007877
v 0.007326 0.006670 0.007326
v 0.003695 0.005747 0.007877
v -0.007326 0.006670 -0.007326
v -0.003695 0.005747 0.007877
v 0.000000 0.005423 0.007997
v 0.007326 0.006670 -0.007326
v 0.007877 0.005747 -0.003695
v 0.007997 0.005423 0.000000
v 0.007877 0.005747 0.003695
v -0.010723 0.009944 0.000000
v 0.000000 0.009944 -0.010723
v -0.010658 0.010657 0.005198
v -0.010361 0.012640 0.010361
v -0.005198 0.010657 -0.010658
v 0.010361 0.012640 0.010361
v -0.005198 0.010657 0.010658
v 0.000000 0.009944 0.010723
v 0.010361 0.012640 -0.010361
v 0.010723 0.009944 0.000000
v -0.010658 0.010657 -0.005198
v 0.005198 0.010657 -0.010658
v 0.005198 0.010657 0.010658
v -0.010361 0.012640 -0.010361
v 0.010658 0.010657 -0.005198
v 0.010658 0.010657 0.005198
v 0.000000 -0.000000 -0.000000
v 0.001586 0.000486 0.000000
v -0.001586 0.000486 -0.000000
v 0.001586 0.000743 -0.001586
v 0.000000 0.000324 -0.001586
v -0.001586 0.000743 -0.001586
v 0.001586 0.000743 0.001586
v 0.000000 0.000324 0.001586
v -0.001586 0.000743 0.001586
v 0.006250 0.034885 0.000000
v 0.000000 0.034885 0.000000
v -0.006250 0.034885 0.000000
v 0.006250 0.034885 0.006250
v 0.000000 0.034885 0.006250
v -0.006250 0.034885 0.006250
v 0.006250 0.034885 -0.006250
v 0.000000 0.034885 -0.006250
v -0.006250 0.034885 -0.006250
v 0.003382 0.053540 0.000000
v 0.003124 0.053540 0.001294
v 0.002391 0.053540 0.002391
v 0.001294 0.053540 0.003124
v 0.000000 0.053540 0.003382
v -0.001294 0.053540 0.003124
v -0.002391 0.053540 0.002391
v -0.003124 0.053540 0.001294
v -0.003382 0.053540 0.000000
v -0.003124 0.053540 -0.001294
v -0.002391 0.053540 -0.002391
v -0.001294 0.053540 -0.003124
v 0.000000 0.053540 -0.003382
v 0.001294 0.053540 -0.003124
v 0.002391 0.053540 -0.002391
v 0.003124 0.053540 -0.001294
v 0.003382 0.038485 0.000000
v 0.003124 0.038485 0.001294
v 0.002391 0.038485 0.002391
v 0.001294 0.038485 0.003124
v 0.000000 0.038485 0.003382
v -0.001294 0.038485 0.003124
v -0.002391 0.038485 0.002391
v -0.003124 0.038485 0.001294
v -0.003382 0.038485 0.000000
v -0.003124 0.038485 -0.001294
v -0.002391 0.038485 -0.002391
v -0.001294 0.038485 -0.003124
v 0.000000 0.038485 -0.003382
v 0.001294 0.038485 -0.003124
v 0.002391 0.038485 -0.002391
v 0.003124 0.038485 -0.001294
v 0.004897 0.034885 0.000000
v 0.004525 0.034885 0.001874
v 0.004525 0.037559 0.001874
v 0.003463 0.034885 0.003463
v 0.003463 0.037559 0.003463
v 0.001874 0.034885 0.004525
v 0.001874 0.037559 0.004525
v 0.000000 0.034885 0.004897
v 0.000000 0.037559 0.004897
v -0.001874 0.034885 0.004525
v -0.001874 0.037559 0.004525
v -0.003463 0.034885 0.003463
v -0.003463 0.037559 0.003463
v -0.004525 0.034885 0.001874
v -0.004525 0.037559 0.001874
v -0.004897 0.034885 -0.000000
v -0.004897 0.037559 -0.000000
v -0.004525 0.034885 -0.001874
v -0.004525 0.037559 -0.001874
v -0.003463 0.034885 -0.003463
v -0.003463 0.037559 -0.003463
v -0.001874 0.034885 -0.004525
v -0.001874 0.037559 -0.004525
v 0.000000 0.034885 -0.004897
v 0.000000 0.037559 -0.004897
v 0.001874 0.034885 -0.004525
v 0.001874 0.037559 -0.004525
v 0.003463 0.034885 -0.003463
v 0.003463 0.037559 -0.003463
v 0.004525 0.034885 -0.001874
v 0.004525 0.037559 -0.001874
v 0.004897 0.037559 0.000000
v 0.000000 0.053540 0.000000
vn -1.0000 -0.0000 -0.0000
vn -0.0000 -0.0000 1.0000
vn 1.0000 -0.0000 -0.0000
vn -0.0000 -0.0000 -1.0000
vn -0.7773 -0.6291 -0.0000
vn -0.7451 -0.6420 -0.1808
vn -0.5459 -0.8158 -0.1909
vn -0.5887 -0.8083 -0.0000
vn -0.0000 -0.6291 -0.7773
vn 0.1808 -0.6420 -0.7451
vn 0.2009 -0.8113 -0.5491
vn -0.0000 -0.8024 -0.5968
vn -0.7451 -0.6420 0.1808
vn -0.5459 -0.8158 0.1909
vn -0.5406 -0.6445 0.5406
vn -0.4101 -0.8147 0.4101
vn -0.1808 -0.6420 -0.7451
vn -0.2009 -0.8113 -0.5491
vn 0.5406 -0.6445 0.5406
vn 0.1808 -0.6420 0.7451
vn 0.2009 -0.8113 0.5491
vn 0.4101 -0.8147 0.4101
vn -0.5406 -0.6445 -0.5406
vn -0.4101 -0.8147 -0.4101
vn -0.1808 -0.6420 0.7451
vn -0.2009 -0.8113 0.5491
vn -0.0000 -0.6291 0.7773
vn -0.0000 -0.8024 0.5968
vn 0.5406 -0.6445 -0.5406
vn 0.7451 -0.6420 -0.1808
vn 0.5459 -0.8158 -0.1909
vn 0.4101 -0.8147 -0.4101
vn 0.7773 -0.6291 -0.0000
vn 0.7451 -0.6420 0.1808
vn 0.5459 -0.8158 0.1909
vn 0.5887 -0.8083 -0.0000
vn 0.8720 -0.4582 0.1722
vn 0.6359 -0.4373 0.6359
vn 0.1722 -0.4582 -0.8720
vn 0.6359 -0.4373 -0.6359
vn 0.8720 -0.4582 -0.1722
vn 0.8871 -0.4615 -0.0000
vn -0.6359 -0.4373 -0.6359
vn -0.1722 -0.4582 -0.8720
vn 0.1722 -0.4582 0.8720
vn -0.0000 -0.4615 0.8871
vn -0.1722 -0.4582 0.8720
vn -0.6359 -0.4373 0.6359
vn -0.8720 -0.4582 -0.1722
vn -0.0000 -0.4615 -0.8871
vn -0.8720 -0.4582 0.1722
vn -0.8871 -0.4615 -0.0000
vn -0.9168 -0.3993 -0.0000
vn -0.9152 -0.3509 -0.1983
vn -0.0000 -0.3993 -0.9168
vn 0.1983 -0.3509 -0.9152
vn -0.9152 -0.3509 0.1983
vn -0.6561 -0.3729 0.6561
vn -0.1983 -0.3509 -0.9152
vn 0.6561 -0.3729 0.6561
vn 0.1983 -0.3509 0.9152
vn -0.6561 -0.3729 -0.6561
vn -0.1983 -0.3509 0.9152
vn -0.0000 -0.3993 0.9168
vn 0.6561 -0.3729 -0.6561
vn 0.9152 -0.3509 -0.1983
vn 0.9168 -0.3993 -0.0000
vn 0.9152 -0.3509 0.1983
vn 0.3066 -0.9104 -0.2778
vn -0.3066 -0.9104 0.2778
vn -0.0000 -0.9431 0.3324
vn 0.3066 -0.9104 0.2778
vn 0.3719 -0.9283 -0.0000
vn -0.3066 -0.9104 -0.2778
vn -0.0000 -0.9431 -0.3324
vn -0.0000 -1.0000 -0.0000
vn -0.3719 -0.9283 -0.0000
vn -0.0000 1.0000 -0.0000
vn 0.9239 -0.0000 0.3827
vn 0.7071 -0.0000 0.7071
vn 0.3827 -0.0000 0.9239
vn -0.3827 -0.0000 0.9239
vn -0.7071 -0.0000 0.7071
vn -0.9239 -0.0000 0.3827
vn -0.9239 -0.0000 -0.3827
vn -0.7071 -0.0000 -0.7071
vn -0.3827 -0.0000 -0.9239
vn 0.3827 -0.0000 -0.9239
vn 0.7071 -0.0000 -0.7071
vn 0.9239 -0.0000 -0.3827
vn -0.5216 0.8532 -0.0000
vn -0.4819 0.8532 -0.1996
vn -0.3688 0.8532 -0.3688
vn -0.1996 0.8532 -0.4819
vn -0.0000 0.8532 -0.5216
vn 0.1996 0.8532 -0.4819
vn 0.3688 0.8532 -0.3688
vn 0.5216 0.8532 -0.0000
vn 0.4819 0.8532 0.1996
vn 0.4819 0.8532 -0.1996
vn 0.3688 0.8532 0.3688
vn -0.4819 0.8532 0.1996
vn -0.3688 0.8532 0.3688
vn -0.1996 0.8532 0.4819
vn -0.0000 0.8532 0.5216
vn 0.1996 0.8532 0.4819
vt 0.745254 0.029202
vt 0.745254 0.274849
vt 0.665927 0.274849
vt 0.665927 0.100932
vt 0.983236 0.100932
vt 0.983236 0.274849
vt 0.903909 0.274849
vt 0.903909 0.029202
vt 0.824582 0.274849
vt 0.824582 0.005063
vt 0.416721 0.029198
vt 0.416721 0.274846
vt 0.337394 0.274846
vt 0.337393 0.100929
vt 0.654703 0.100929
vt 0.654704 0.274846
vt 0.575376 0.274846
vt 0.575376 0.029198
vt 0.496049 0.274846
vt 0.496048 0.005059
vt 0.085440 0.307194
vt 0.085440 0.552840
vt 0.006113 0.552840
vt 0.006113 0.378923
vt 0.323421 0.378924
vt 0.323421 0.552840
vt 0.244094 0.552840
vt 0.244094 0.307193
vt 0.164767 0.552840
vt 0.164767 0.283055
vt 0.085443 0.029201
vt 0.085444 0.274844
vt 0.006117 0.274844
vt 0.006117 0.100930
vt 0.323422 0.100930
vt 0.323422 0.274844
vt 0.244096 0.274844
vt 0.244096 0.029201
vt 0.164770 0.274844
vt 0.164770 0.005063
vt 0.819925 0.766642
vt 0.773598 0.769118
vt 0.795857 0.704760
vt 0.819925 0.705609
vt 0.828559 0.350639
vt 0.782231 0.353115
vt 0.804490 0.288756
vt 0.828559 0.289604
vt 0.866252 0.769118
vt 0.843994 0.704760
vt 0.913899 0.774373
vt 0.868078 0.699399
vt 0.874887 0.353115
vt 0.852627 0.288756
vt 0.588999 0.686612
vt 0.541352 0.681358
vt 0.519094 0.616999
vt 0.543177 0.611639
vt 0.725952 0.774372
vt 0.771774 0.699399
vt 0.448698 0.681358
vt 0.401051 0.686612
vt 0.446874 0.611639
vt 0.470957 0.616999
vt 0.495025 0.678882
vt 0.495025 0.617848
vt 0.918215 0.566371
vt 0.870568 0.561116
vt 0.848309 0.496758
vt 0.872393 0.491397
vt 0.824240 0.558640
vt 0.777913 0.561116
vt 0.800172 0.496758
vt 0.824240 0.497606
vt 0.922534 0.358370
vt 0.876712 0.283395
vt 0.734583 0.358370
vt 0.780406 0.283395
vt 0.730266 0.566371
vt 0.776088 0.491397
vt 0.758510 0.631905
vt 0.690929 0.651702
vt 0.762828 0.423904
vt 0.695246 0.443702
vt 0.889971 0.631905
vt 0.824240 0.624903
vt 0.961870 0.443702
vt 0.894289 0.423904
vt 0.560755 0.752146
vt 0.495025 0.745143
vt 0.957552 0.651702
vt 0.429295 0.752146
vt 0.361715 0.771943
vt 0.754196 0.839906
vt 0.686616 0.859703
vt 0.628335 0.771943
vt 0.828558 0.416902
vt 0.953235 0.859703
vt 0.885656 0.839906
vt 0.819925 0.832904
vt 0.819925 0.884906
vt 0.739082 0.905806
vt 0.828558 0.468905
vt 0.747712 0.489807
vt 0.900770 0.905806
vt 0.986909 0.970598
vt 0.909404 0.489807
vt 0.662009 0.882838
vt 0.575869 0.818046
vt 0.652943 0.970598
vt 0.414181 0.818047
vt 0.328041 0.882838
vt 0.495025 0.797146
vt 0.991225 0.762599
vt 0.905085 0.697806
vt 0.824240 0.676905
vt 0.743396 0.697806
vt 0.995544 0.554598
vt 0.661572 0.554598
vt 0.657256 0.762599
vt 0.213377 0.901774
vt 0.208090 0.940665
vt 0.184313 0.930929
vt 0.174453 0.907191
vt 0.252276 0.863027
vt 0.232826 0.864273
vt 0.232826 0.821770
vt 0.257563 0.824136
vt 0.213377 0.863027
vt 0.213910 0.882401
vt 0.171962 0.882401
vt 0.174453 0.857610
vt 0.252276 0.901774
vt 0.257563 0.940665
vt 0.232826 0.943031
vt 0.232826 0.900528
vt 0.232826 0.882401
vt 0.291201 0.907191
vt 0.281339 0.930929
vt 0.291201 0.857610
vt 0.281339 0.833872
vt 0.251743 0.882401
vt 0.293691 0.882401
vt 0.208090 0.824136
vt 0.184313 0.833872
vt 0.574143 0.365898
vt 0.574143 0.286572
vt 0.653470 0.286572
vt 0.653470 0.365898
vt 0.336162 0.365898
vt 0.336162 0.286571
vt 0.415489 0.286571
vt 0.415489 0.365898
vt 0.494816 0.365898
vt 0.494816 0.286571
vt 0.415489 0.524553
vt 0.415489 0.445226
vt 0.494816 0.445226
vt 0.494816 0.524553
vt 0.574143 0.445226
vt 0.574143 0.524553
vt 0.653470 0.445226
vt 0.653470 0.524553
vt 0.336162 0.524553
vt 0.336162 0.445226
vt 0.415489 0.603880
vt 0.494816 0.603880
vt 0.574143 0.603880
vt 0.653470 0.603880
vt 0.336162 0.603880
vt 0.166662 0.620467
vt 0.166662 0.799981
vt 0.147403 0.799981
vt 0.147403 0.620467
vt 0.128143 0.799981
vt 0.128143 0.620467
vt 0.108883 0.799981
vt 0.108883 0.620467
vt 0.089624 0.799981
vt 0.089624 0.620467
vt 0.070364 0.799981
vt 0.070364 0.620467
vt 0.051104 0.799981
vt 0.051104 0.620467
vt 0.031845 0.799981
vt 0.031845 0.620467
vt 0.012586 0.799981
vt 0.012586 0.620467
vt 0.320740 0.620468
vt 0.320740 0.799981
vt 0.301479 0.799981
vt 0.301480 0.620467
vt 0.282220 0.799981
vt 0.282220 0.620467
vt 0.262961 0.799981
vt 0.262961 0.620467
vt 0.243701 0.799981
vt 0.243701 0.620467
vt 0.224441 0.799981
vt 0.224441 0.620467
vt 0.205182 0.799981
vt 0.205182 0.620467
vt 0.494550 0.868417
vt 0.494549 0.911342
vt 0.478122 0.908074
vt 0.464197 0.898770
vt 0.185922 0.799981
vt 0.185922 0.620467
vt 0.301480 0.599287
vt 0.320739 0.599287
vt 0.282220 0.599287
vt 0.262961 0.599287
vt 0.243701 0.599287
vt 0.224441 0.599287
vt 0.205182 0.599287
vt 0.147403 0.599287
vt 0.166662 0.599287
vt 0.185922 0.599287
vt 0.128143 0.599287
vt 0.185922 0.567407
vt 0.166662 0.567407
vt 0.205182 0.567407
vt 0.224441 0.567407
vt 0.243701 0.567408
vt 0.262961 0.567408
vt 0.282220 0.567408
vt 0.301479 0.567408
vt 0.320740 0.567407
vt 0.031845 0.567407
vt 0.031845 0.599287
vt 0.012586 0.599287
vt 0.012586 0.567407
vt 0.051104 0.567407
vt 0.051104 0.599287
vt 0.070364 0.567407
vt 0.070364 0.599287
vt 0.089624 0.567407
vt 0.089624 0.599287
vt 0.108884 0.567407
vt 0.108883 0.599287
vt 0.128143 0.567407
vt 0.147403 0.567407
vt 0.524902 0.898769
vt 0.510976 0.908074
vt 0.451624 0.868416
vt 0.454893 0.851990
vt 0.464197 0.838065
vt 0.524902 0.838064
vt 0.494550 0.825492
vt 0.510977 0.828760
vt 0.537475 0.868418
vt 0.534207 0.884844
vt 0.478123 0.828759
vt 0.534207 0.851991
vt 0.454892 0.884843
s 1
f 2/1/1 7/2/1 1/3/1 26/4/1
f 8/5/1 9/6/1 5/7/1 4/8/1
f 4/8/1 5/7/1 6/9/1 3/10/1
f 3/10/1 6/9/1 7/2/1 2/1/1
f 12/11/2 17/12/2 9/13/2 8/14/2
f 10/15/2 11/16/2 15/17/2 14/18/2
f 14/18/2 15/17/2 16/19/2 13/20/2
f 13/20/2 16/19/2 17/12/2 12/11/2
f 19/21/3 24/22/3 11/23/3 10/24/3
f 25/25/3 18/26/3 22/27/3 21/28/3
f 21/28/3 22/27/3 23/29/3 20/30/3
f 20/30/3 23/29/3 24/22/3 19/21/3
f 27/31/4 32/32/4 18/33/4 25/34/4
f 26/35/4 1/36/4 30/37/4 29/38/4
f 29/38/4 30/37/4 31/39/4 28/40/4
f 28/40/4 31/39/4 32/32/4 27/31/4
f 49/41/5 50/42/6 33/43/7 34/44/8
f 51/45/9 52/46/10 46/47/11 47/48/12
f 53/49/13 49/41/5 34/44/8 35/50/14
f 54/51/15 53/49/13 35/50/14 36/52/16
f 55/53/17 51/45/9 47/48/12 48/54/18
f 56/55/19 57/56/20 40/57/21 37/58/22
f 50/42/6 58/59/23 45/60/24 33/43/7
f 59/61/25 54/62/15 36/63/16 38/64/26
f 60/65/27 59/61/25 38/64/26 39/66/28
f 61/67/29 62/68/30 43/69/31 44/70/32
f 63/71/33 64/72/34 41/73/35 42/74/36
f 57/56/20 60/65/27 39/66/28 40/57/21
f 58/75/23 55/53/17 48/54/18 45/76/24
f 62/68/30 63/71/33 42/74/36 43/69/31
f 52/46/10 61/77/29 44/78/32 46/47/11
f 64/72/34 56/79/19 37/80/22 41/73/35
f 80/81/37 70/82/38 56/79/19 64/72/34
f 76/83/39 73/84/40 61/77/29 52/46/10
f 79/85/41 74/86/42 63/71/33 62/68/30
f 78/87/43 69/88/44 55/53/17 58/75/23
f 77/89/45 72/90/46 60/65/27 57/56/20
f 74/86/42 80/81/37 64/72/34 63/71/33
f 73/91/40 79/85/41 62/68/30 61/67/29
f 72/90/46 71/92/47 59/61/25 60/65/27
f 71/92/47 68/93/48 54/62/15 59/61/25
f 75/94/49 78/95/43 58/59/23 50/42/6
f 70/96/38 77/89/45 57/56/20 56/55/19
f 69/88/44 66/97/50 51/45/9 55/53/17
f 68/98/48 67/99/51 53/49/13 54/51/15
f 67/99/51 65/100/52 49/41/5 53/49/13
f 66/97/50 76/83/39 52/46/10 51/45/9
f 65/100/52 75/94/49 50/42/6 49/41/5
f 3/101/53 2/102/54 75/94/49 65/100/52
f 28/103/55 27/104/56 76/83/39 66/97/50
f 4/105/57 3/101/53 65/100/52 67/99/51
f 8/106/58 4/105/57 67/99/51 68/98/48
f 29/107/59 28/103/55 66/97/50 69/88/44
f 10/108/60 14/109/61 77/89/45 70/96/38
f 2/102/54 26/110/62 78/95/43 75/94/49
f 12/111/63 8/112/58 68/93/48 71/92/47
f 13/113/64 12/111/63 71/92/47 72/90/46
f 25/114/65 21/115/66 79/85/41 73/91/40
f 20/116/67 19/117/68 80/81/37 74/86/42
f 14/109/61 13/113/64 72/90/46 77/89/45
f 26/118/62 29/107/59 69/88/44 78/87/43
f 21/115/66 20/116/67 74/86/42 79/85/41
f 27/104/56 25/119/65 73/84/40 76/83/39
f 19/117/68 10/120/60 70/82/38 80/81/37
f 84/121/69 46/122/11 44/123/32 43/124/31
f 89/125/70 88/126/71 39/127/28 38/128/26
f 87/129/72 82/130/73 42/131/36 41/132/35
f 86/133/74 48/134/18 47/135/12 85/136/75
f 85/136/75 47/135/12 46/122/11 84/121/69
f 88/126/71 81/137/76 82/130/73 87/129/72
f 33/138/7 45/139/24 48/134/18 86/133/74
f 35/140/14 89/125/70 38/128/26 36/141/16
f 83/142/77 86/133/74 85/136/75 81/137/76
f 81/137/76 85/136/75 84/121/69 82/130/73
f 82/130/73 84/121/69 43/124/31 42/131/36
f 34/143/8 33/138/7 86/133/74 83/142/77
f 83/142/77 81/137/76 88/126/71 89/125/70
f 39/127/28 88/126/71 87/129/72 40/144/21
f 40/144/21 87/129/72 41/132/35 37/145/22
f 34/143/8 83/142/77 89/125/70 35/140/14
f 93/146/78 15/147/78 11/148/78 24/149/78
f 5/150/78 9/151/78 17/152/78 95/153/78
f 94/154/78 16/155/78 15/147/78 93/146/78
f 95/153/78 17/152/78 16/155/78 94/154/78
f 98/156/78 92/157/78 91/158/78 97/159/78
f 97/159/78 91/158/78 90/160/78 96/161/78
f 96/161/78 90/160/78 23/162/78 22/163/78
f 7/164/78 6/165/78 92/157/78 98/156/78
f 92/157/78 95/153/78 94/154/78 91/158/78
f 91/158/78 94/154/78 93/146/78 90/160/78
f 90/160/78 93/146/78 24/149/78 23/162/78
f 6/165/78 5/150/78 95/153/78 92/157/78
f 30/166/78 98/156/78 97/159/78 31/167/78
f 31/167/78 97/159/78 96/161/78 32/168/78
f 32/168/78 96/161/78 22/163/78 18/169/78
f 1/170/78 7/164/78 98/156/78 30/166/78
f 115/171/3 99/172/3 100/173/79 116/174/79
f 116/174/79 100/173/79 101/175/80 117/176/80
f 117/176/80 101/175/80 102/177/81 118/178/81
f 118/178/81 102/177/81 103/179/2 119/180/2
f 119/180/2 103/179/2 104/181/82 120/182/82
f 120/182/82 104/181/82 105/183/83 121/184/83
f 121/184/83 105/183/83 106/185/84 122/186/84
f 122/186/84 106/185/84 107/187/1 123/188/1
f 123/189/1 107/190/1 108/191/85 124/192/85
f 124/192/85 108/191/85 109/193/86 125/194/86
f 125/194/86 109/193/86 110/195/87 126/196/87
f 126/196/87 110/195/87 111/197/4 127/198/4
f 127/198/4 111/197/4 112/199/88 128/200/88
f 128/200/88 112/199/88 113/201/89 129/202/89
f 163/203/78 111/204/78 110/205/78 109/206/78
f 129/202/89 113/201/89 114/207/90 130/208/90
f 130/208/90 114/207/90 99/172/3 115/171/3
f 123/189/91 124/192/92 149/209/92 147/210/91
f 124/192/92 125/194/93 151/211/93 149/209/92
f 125/194/93 126/196/94 153/212/94 151/211/93
f 126/196/94 127/198/95 155/213/95 153/212/94
f 127/198/95 128/200/96 157/214/96 155/213/95
f 128/200/96 129/202/97 159/215/97 157/214/96
f 115/171/98 116/174/99 133/216/99 162/217/98
f 129/202/97 130/208/100 161/218/100 159/215/97
f 116/174/99 117/176/101 135/219/101 133/216/99
f 160/220/90 161/218/90 162/217/3 131/221/3
f 158/222/89 159/215/89 161/218/90 160/220/90
f 156/223/88 157/214/88 159/215/89 158/222/89
f 154/224/4 155/213/4 157/214/88 156/223/88
f 152/225/87 153/212/87 155/213/4 154/224/4
f 150/226/86 151/211/86 153/212/87 152/225/87
f 148/227/85 149/209/85 151/211/86 150/226/86
f 146/228/1 147/210/1 149/209/85 148/227/85
f 144/229/84 145/230/84 147/231/1 146/232/1
f 142/233/83 143/234/83 145/230/84 144/229/84
f 140/235/82 141/236/82 143/234/83 142/233/83
f 138/237/2 139/238/2 141/236/82 140/235/82
f 136/239/81 137/240/81 139/238/2 138/237/2
f 134/241/80 135/219/80 137/240/81 136/239/81
f 132/242/79 133/216/79 135/219/80 134/241/80
f 131/221/3 162/217/3 133/216/79 132/242/79
f 122/186/102 123/188/91 147/231/91 145/230/102
f 121/184/103 122/186/102 145/230/102 143/234/103
f 120/182/104 121/184/103 143/234/103 141/236/104
f 119/180/105 120/182/104 141/236/104 139/238/105
f 118/178/106 119/180/105 139/238/105 137/240/106
f 117/176/101 118/178/106 137/240/106 135/219/101
f 130/208/100 115/171/98 162/217/98 161/218/100
f 163/203/78 113/243/78 112/244/78 111/204/78
f 163/203/78 107/245/78 106/246/78 105/247/78
f 101/248/78 163/203/78 103/249/78 102/250/78
f 99/251/78 114/252/78 113/243/78 163/203/78
f 103/249/78 163/203/78 105/247/78 104/253/78
f 100/254/78 99/251/78 163/203/78 101/248/78
f 107/245/78 163/203/78 109/206/78 108/255/78
