# Blender 4.0.2
# www.blender.org
o rocket_toy_01
v -0.003476 0.000000 -0.029895
v 0.003478 0.000000 -0.033309
v 0.000001 0.000000 -0.029895
v 0.003479 0.000000 -0.043236
v 0.003478 0.000000 -0.029895
v 0.003478 0.000000 -0.038703
v 0.000002 0.000000 -0.043311
v -0.003475 0.000000 -0.043237
v 0.000001 0.000000 -0.033384
v -0.003475 0.000000 -0.033310
v -0.003475 0.000000 -0.038703
v 0.000002 0.000000 -0.038777
v 0.003479 0.058829 -0.026004
v -0.003475 0.058829 -0.026004
v 0.000002 0.058829 -0.026695
v -0.003476 0.013411 -0.014325
v 0.003478 0.013411 -0.014324
v 0.000001 0.013411 -0.015016
v -0.003475 0.027780 -0.019355
v 0.003478 0.027780 -0.019355
v 0.003478 0.042859 -0.023218
v -0.003475 0.042859 -0.023219
v -0.003475 0.025572 -0.023782
v -0.003475 0.038960 -0.029187
v -0.003476 0.012662 -0.019059
v 0.003478 0.012662 -0.019059
v 0.000001 0.012662 -0.019059
v 0.003479 0.049785 -0.033456
v 0.003478 0.038960 -0.029187
v 0.003478 0.025572 -0.023782
v -0.003475 0.049785 -0.033456
v 0.000002 0.049785 -0.033636
v -0.003475 0.030958 -0.034216
v -0.003475 0.020727 -0.037236
v -0.003475 0.009324 -0.038801
v -0.003476 0.010799 -0.023487
v -0.003476 0.007774 -0.026945
v -0.003476 0.004006 -0.029201
v 0.003478 0.010799 -0.023487
v 0.003478 0.007774 -0.026945
v 0.003478 0.004006 -0.029201
v 0.003478 0.020651 -0.028681
v 0.003478 0.013895 -0.031802
v 0.003478 0.006212 -0.033249
v -0.003475 0.038725 -0.038863
v -0.003475 0.026348 -0.042061
v -0.003475 0.011961 -0.043250
v -0.003475 0.006212 -0.033249
v -0.003475 0.013895 -0.031803
v -0.003475 0.020651 -0.028682
v 0.000001 0.004006 -0.029201
v 0.000001 0.007774 -0.026945
v 0.000001 0.010799 -0.023487
v 0.003479 0.011961 -0.043250
v 0.003479 0.026348 -0.042061
v 0.003479 0.038725 -0.038863
v 0.003478 0.009324 -0.038801
v 0.003478 0.020727 -0.037236
v 0.003478 0.030958 -0.034216
v 0.000002 0.011961 -0.043250
v 0.000002 0.026348 -0.042061
v 0.000002 0.038725 -0.038863
v 0.006790 0.141454 -0.006789
v 0.003675 0.141454 -0.008870
v 0.000001 0.141454 -0.009601
v -0.003674 0.141454 -0.008871
v 0.004667 0.145729 -0.004667
v 0.002310 0.146039 -0.005991
v -0.000000 0.146133 -0.006363
v -0.002310 0.146039 -0.005991
v -0.006789 0.141454 -0.006790
v -0.008870 0.141454 -0.003675
v -0.009601 0.141454 -0.000001
v -0.008871 0.141454 0.003674
v -0.004667 0.145729 -0.004667
v -0.005991 0.146039 -0.002310
v -0.006363 0.146133 -0.000000
v -0.005991 0.146039 0.002310
v -0.006790 0.141454 0.006789
v -0.003675 0.141454 0.008870
v -0.000001 0.141454 0.009601
v 0.003674 0.141454 0.008871
v -0.004667 0.145729 0.004667
v -0.002310 0.146039 0.005991
v -0.000000 0.146133 0.006363
v 0.002310 0.146039 0.005991
v 0.006789 0.141454 0.006790
v 0.008870 0.141454 0.003675
v 0.009601 0.141454 0.000001
v 0.008871 0.141454 -0.003674
v 0.004667 0.145729 0.004667
v 0.005991 0.146039 0.002310
v 0.006363 0.146133 0.000000
v 0.005991 0.146039 -0.002310
v 0.003639 0.147529 -0.003639
v 0.001780 0.148150 -0.004174
v 0.000000 0.148338 -0.004330
v -0.001780 0.148150 -0.004174
v -0.003639 0.147529 -0.003639
v 0.004174 0.148150 -0.001780
v 0.001993 0.149403 -0.001993
v 0.000000 0.149761 -0.002054
v -0.001993 0.149403 -0.001993
v -0.004174 0.148150 -0.001780
v 0.004330 0.148338 0.000000
v 0.002054 0.149761 -0.000000
v 0.000000 0.150164 0.000000
v -0.002054 0.149761 -0.000000
v -0.004330 0.148338 0.000000
v 0.004174 0.148150 0.001780
v 0.001993 0.149403 0.001993
v 0.000000 0.149761 0.002054
v -0.001993 0.149403 0.001993
v -0.004174 0.148150 0.001780
v 0.003639 0.147529 0.003639
v 0.001780 0.148150 0.004174
v 0.000000 0.148338 0.004330
v -0.001780 0.148150 0.004174
v -0.003639 0.147529 0.003639
v 0.017050 0.108095 -0.017048
v 0.009229 0.108095 -0.022275
v 0.000002 0.108095 -0.024111
v -0.009225 0.108095 -0.022276
v -0.017048 0.108095 -0.017050
v -0.022275 0.108095 -0.009229
v -0.024111 0.108095 -0.000002
v -0.022276 0.108095 0.009225
v -0.017050 0.108095 0.017048
v -0.009229 0.108095 0.022275
v -0.000002 0.108095 0.024111
v 0.009225 0.108095 0.022276
v 0.017048 0.108095 0.017050
v 0.022275 0.108095 0.009229
v 0.024111 0.108095 0.000002
v 0.022276 0.108095 -0.009225
v 0.018878 0.058829 -0.018875
v 0.010218 0.058829 -0.024663
v 0.000002 0.058829 -0.026695
v -0.010214 0.058829 -0.024664
v -0.018875 0.058829 -0.018878
v -0.024663 0.058829 -0.010218
v -0.026696 0.058829 -0.000002
v -0.024664 0.058829 0.010214
v -0.018878 0.058829 0.018875
v -0.010218 0.058829 0.024663
v -0.000002 0.058829 0.026695
v 0.010214 0.058829 0.024664
v 0.018875 0.058829 0.018878
v 0.024663 0.058829 0.010218
v 0.026695 0.058829 0.000002
v 0.024664 0.058829 -0.010214
v 0.010619 0.013411 -0.010617
v 0.005747 0.013411 -0.013872
v 0.000001 0.013411 -0.015016
v -0.005745 0.013411 -0.013873
v -0.010617 0.013411 -0.010619
v -0.013872 0.013411 -0.005747
v -0.015016 0.013411 -0.000001
v -0.013873 0.013411 0.005745
v -0.010619 0.013411 0.010617
v -0.005747 0.013411 0.013872
v -0.000001 0.013411 0.015016
v 0.005745 0.013411 0.013873
v 0.010617 0.013411 0.010619
v 0.013872 0.013411 0.005747
v 0.015016 0.013411 0.000001
v 0.013873 0.013411 -0.005745
v -0.007673 0.027780 0.018520
v -0.009152 0.042859 0.022089
v -0.016908 0.042859 0.016906
v -0.014176 0.027780 0.014174
v -0.000001 0.027780 0.020046
v -0.000002 0.042859 0.023910
v 0.007670 0.027780 0.018521
v 0.009148 0.042859 0.022090
v 0.014174 0.027780 0.014176
v 0.016906 0.042859 0.016908
v 0.018520 0.027780 0.007673
v 0.022089 0.042859 0.009152
v 0.020046 0.027780 0.000001
v 0.023910 0.042859 0.000002
v 0.018521 0.027780 -0.007670
v 0.022090 0.042859 -0.009148
v 0.007673 0.027780 -0.018520
v 0.009152 0.042859 -0.022089
v 0.016908 0.042859 -0.016906
v 0.014176 0.027780 -0.014174
v 0.000001 0.027780 -0.020046
v 0.000002 0.042859 -0.023910
v -0.007670 0.027780 -0.018521
v -0.009148 0.042859 -0.022090
v -0.014174 0.027780 -0.014176
v -0.016906 0.042859 -0.016908
v -0.018520 0.027780 -0.007673
v -0.022089 0.042859 -0.009152
v -0.020046 0.027780 -0.000001
v -0.023910 0.042859 -0.000002
v -0.018521 0.027780 0.007670
v -0.022090 0.042859 0.009148
v 0.027944 0.075945 0.000002
v 0.027136 0.092607 0.000002
v 0.025069 0.092607 0.010386
v 0.025816 0.075945 0.010696
v 0.025818 0.075945 -0.010692
v 0.025071 0.092607 -0.010383
v 0.010696 0.075945 -0.025816
v 0.010386 0.092607 -0.025069
v 0.019189 0.092607 -0.019186
v 0.019761 0.075945 -0.019758
v 0.000002 0.075945 -0.027944
v 0.000002 0.092607 -0.027136
v -0.010692 0.075945 -0.025818
v -0.010383 0.092607 -0.025071
v -0.019758 0.075945 -0.019761
v -0.019186 0.092607 -0.019189
v -0.025816 0.075945 -0.010696
v -0.025069 0.092607 -0.010386
v -0.027944 0.075945 -0.000002
v -0.027136 0.092607 -0.000002
v -0.025818 0.075945 0.010692
v -0.025071 0.092607 0.010383
v -0.019761 0.075945 0.019758
v -0.019189 0.092607 0.019186
v -0.010696 0.075945 0.025816
v -0.010386 0.092607 0.025069
v -0.000002 0.075945 0.027944
v -0.000002 0.092607 0.027136
v 0.010692 0.075945 0.025818
v 0.010383 0.092607 0.025071
v 0.019758 0.075945 0.019761
v 0.019186 0.092607 0.019189
v -0.017746 0.122404 -0.007352
v -0.013169 0.133492 -0.005456
v -0.010078 0.133492 -0.010080
v -0.013582 0.122404 -0.013584
v 0.007352 0.122404 -0.017746
v 0.005456 0.133492 -0.013169
v 0.010080 0.133492 -0.010078
v 0.013584 0.122404 -0.013582
v -0.017748 0.122404 0.007350
v -0.013170 0.133492 0.005454
v -0.014254 0.133492 -0.000001
v -0.019209 0.122404 -0.000001
v -0.007350 0.122404 -0.017748
v -0.005454 0.133492 -0.013170
v 0.000001 0.133492 -0.014254
v 0.000001 0.122404 -0.019209
v 0.013170 0.133492 -0.005454
v 0.017748 0.122404 -0.007350
v 0.013582 0.122404 0.013584
v 0.010078 0.133492 0.010080
v 0.005454 0.133492 0.013170
v 0.007350 0.122404 0.017748
v 0.019209 0.122404 0.000001
v 0.014254 0.133492 0.000001
v 0.013169 0.133492 0.005456
v 0.017746 0.122404 0.007352
v -0.013584 0.122404 0.013582
v -0.010080 0.133492 0.010078
v -0.000001 0.122404 0.019209
v -0.000001 0.133492 0.014254
v -0.005456 0.133492 0.013169
v -0.007352 0.122404 0.017746
v -0.000000 0.013411 0.000000
v 0.029895 0.000000 -0.003476
v 0.033309 0.000000 0.003478
v 0.029895 0.000000 0.000001
v 0.043236 0.000000 0.003479
v 0.029895 0.000000 0.003478
v 0.038703 0.000000 0.003478
v 0.043311 0.000000 0.000002
v 0.043237 0.000000 -0.003475
v 0.033384 0.000000 0.000001
v 0.033310 0.000000 -0.003475
v 0.038703 0.000000 -0.003475
v 0.038777 0.000000 0.000002
v 0.026004 0.058829 0.003479
v 0.026004 0.058829 -0.003475
v 0.026695 0.058829 0.000002
v 0.014325 0.013411 -0.003476
v 0.014324 0.013411 0.003478
v 0.015016 0.013411 0.000001
v 0.019355 0.027780 -0.003475
v 0.019355 0.027780 0.003478
v 0.023218 0.042859 0.003478
v 0.023219 0.042859 -0.003475
v 0.023782 0.025572 -0.003475
v 0.029187 0.038960 -0.003475
v 0.019059 0.012662 -0.003476
v 0.019059 0.012662 0.003478
v 0.019059 0.012662 0.000001
v 0.033456 0.049785 0.003479
v 0.029187 0.038960 0.003478
v 0.023782 0.025572 0.003478
v 0.033456 0.049785 -0.003475
v 0.033636 0.049785 0.000002
v 0.034216 0.030958 -0.003475
v 0.037236 0.020727 -0.003475
v 0.038801 0.009324 -0.003475
v 0.023487 0.010799 -0.003476
v 0.026945 0.007774 -0.003476
v 0.029201 0.004006 -0.003476
v 0.023487 0.010799 0.003478
v 0.026945 0.007774 0.003478
v 0.029201 0.004006 0.003478
v 0.028681 0.020651 0.003478
v 0.031802 0.013895 0.003478
v 0.033249 0.006212 0.003478
v 0.038863 0.038725 -0.003475
v 0.042061 0.026348 -0.003475
v 0.043250 0.011961 -0.003475
v 0.033249 0.006212 -0.003475
v 0.031803 0.013895 -0.003475
v 0.028682 0.020651 -0.003475
v 0.029201 0.004006 0.000001
v 0.026945 0.007774 0.000001
v 0.023487 0.010799 0.000001
v 0.043250 0.011961 0.003479
v 0.042061 0.026348 0.003479
v 0.038863 0.038725 0.003479
v 0.038801 0.009324 0.003478
v 0.037236 0.020727 0.003478
v 0.034216 0.030958 0.003478
v 0.043250 0.011961 0.000002
v 0.042061 0.026348 0.000002
v 0.038863 0.038725 0.000002
v 0.003476 0.000000 0.029895
v -0.003478 0.000000 0.033309
v -0.000001 0.000000 0.029895
v -0.003479 0.000000 0.043236
v -0.003478 0.000000 0.029895
v -0.003478 0.000000 0.038703
v -0.000002 0.000000 0.043311
v 0.003475 0.000000 0.043237
v -0.000001 0.000000 0.033384
v 0.003475 0.000000 0.033310
v 0.003475 0.000000 0.038703
v -0.000002 0.000000 0.038777
v -0.003479 0.058829 0.026004
v 0.003475 0.058829 0.026004
v -0.000002 0.058829 0.026695
v 0.003476 0.013411 0.014325
v -0.003478 0.013411 0.014324
v -0.000001 0.013411 0.015016
v 0.003475 0.027780 0.019355
v -0.003478 0.027780 0.019355
v -0.003478 0.042859 0.023218
v 0.003475 0.042859 0.023219
v 0.003475 0.025572 0.023782
v 0.003475 0.038960 0.029187
v 0.003476 0.012662 0.019059
v -0.003478 0.012662 0.019059
v -0.000001 0.012662 0.019059
v -0.003479 0.049785 0.033456
v -0.003478 0.038960 0.029187
v -0.003478 0.025572 0.023782
v 0.003475 0.049785 0.033456
v -0.000002 0.049785 0.033636
v 0.003475 0.030958 0.034216
v 0.003475 0.020727 0.037236
v 0.003475 0.009324 0.038801
v 0.003476 0.010799 0.023487
v 0.003476 0.007774 0.026945
v 0.003476 0.004006 0.029201
v -0.003478 0.010799 0.023487
v -0.003478 0.007774 0.026945
v -0.003478 0.004006 0.029201
v -0.003478 0.020651 0.028681
v -0.003478 0.013895 0.031802
v -0.003478 0.006212 0.033249
v 0.003475 0.038725 0.038863
v 0.003475 0.026348 0.042061
v 0.003475 0.011961 0.043250
v 0.003475 0.006212 0.033249
v 0.003475 0.013895 0.031803
v 0.003475 0.020651 0.028682
v -0.000001 0.004006 0.029201
v -0.000001 0.007774 0.026945
v -0.000001 0.010799 0.023487
v -0.003479 0.011961 0.043250
v -0.003479 0.026348 0.042061
v -0.003479 0.038725 0.038863
v -0.003478 0.009324 0.038801
v -0.003478 0.020727 0.037236
v -0.003478 0.030958 0.034216
v -0.000002 0.011961 0.043250
v -0.000002 0.026348 0.042061
v -0.000002 0.038725 0.038863
v -0.029895 0.000000 0.003476
v -0.033309 0.000000 -0.003478
v -0.029895 0.000000 -0.000001
v -0.043236 0.000000 -0.003479
v -0.029895 0.000000 -0.003478
v -0.038703 0.000000 -0.003478
v -0.043311 0.000000 -0.000002
v -0.043237 0.000000 0.003475
v -0.033384 0.000000 -0.000001
v -0.033310 0.000000 0.003475
v -0.038703 0.000000 0.003475
v -0.038777 0.000000 -0.000002
v -0.026004 0.058829 -0.003479
v -0.026004 0.058829 0.003475
v -0.026695 0.058829 -0.000002
v -0.014325 0.013411 0.003476
v -0.014324 0.013411 -0.003478
v -0.015016 0.013411 -0.000001
v -0.019355 0.027780 0.003475
v -0.019355 0.027780 -0.003478
v -0.023218 0.042859 -0.003478
v -0.023219 0.042859 0.003475
v -0.023782 0.025572 0.003475
v -0.029187 0.038960 0.003475
v -0.019059 0.012662 0.003476
v -0.019059 0.012662 -0.003478
v -0.019059 0.012662 -0.000001
v -0.033456 0.049785 -0.003479
v -0.029187 0.038960 -0.003478
v -0.023782 0.025572 -0.003478
v -0.033456 0.049785 0.003475
v -0.033636 0.049785 -0.000002
v -0.034216 0.030958 0.003475
v -0.037236 0.020727 0.003475
v -0.038801 0.009324 0.003475
v -0.023487 0.010799 0.003476
v -0.026945 0.007774 0.003476
v -0.029201 0.004006 0.003476
v -0.023487 0.010799 -0.003478
v -0.026945 0.007774 -0.003478
v -0.029201 0.004006 -0.003478
v -0.028681 0.020651 -0.003478
v -0.031802 0.013895 -0.003478
v -0.033249 0.006212 -0.003478
v -0.038863 0.038725 0.003475
v -0.042061 0.026348 0.003475
v -0.043250 0.011961 0.003475
v -0.033249 0.006212 0.003475
v -0.031803 0.013895 0.003475
v -0.028682 0.020651 0.003475
v -0.029201 0.004006 -0.000001
v -0.026945 0.007774 -0.000001
v -0.023487 0.010799 -0.000001
v -0.043250 0.011961 -0.003479
v -0.042061 0.026348 -0.003479
v -0.038863 0.038725 -0.003479
v -0.038801 0.009324 -0.003478
v -0.037236 0.020727 -0.003478
v -0.034216 0.030958 -0.003478
v -0.043250 0.011961 -0.000002
v -0.042061 0.026348 -0.000002
v -0.038863 0.038725 -0.000002
vn -0.0000 -1.0000 -0.0000
vn 1.0000 -0.0000 -0.0000
vn 1.0000 -0.0000 0.0001
vn -0.0000 -0.3480 0.9375
vn -0.0000 -0.1706 0.9853
vn -1.0000 -0.0000 -0.0001
vn -0.0000 0.0422 -0.9991
vn 0.0053 0.0422 -0.9991
vn 0.0107 0.0020 -0.9999
vn -0.0000 0.0020 -1.0000
vn -0.0053 0.0422 -0.9991
vn -0.0107 0.0020 -0.9999
vn -0.0976 0.6197 -0.7787
vn -0.0000 0.6227 -0.7825
vn -0.0000 0.5294 -0.8484
vn -0.0616 0.5317 -0.8447
vn 0.0977 0.6197 -0.7787
vn 0.0616 0.5317 -0.8447
vn -1.0000 -0.0000 -0.0000
vn -0.0168 -0.9856 0.1684
vn -0.0000 -0.9857 0.1684
vn -0.0000 -0.9600 0.2799
vn -0.0084 -0.9600 0.2799
vn 0.0167 -0.9856 0.1684
vn 0.0084 -0.9600 0.2799
vn -0.0000 0.3433 -0.9392
vn -0.0117 0.3433 -0.9392
vn -0.0000 0.1669 -0.9860
vn 0.0117 0.3433 -0.9392
vn -0.0000 -0.8481 0.5298
vn -0.0000 -0.6410 0.7675
vn 0.5963 0.5375 -0.5962
vn 0.3237 0.5361 -0.7796
vn 0.2953 0.6143 -0.7317
vn 0.5633 0.6045 -0.5633
vn 0.0001 0.5343 -0.8453
vn -0.0000 0.6206 -0.7841
vn -0.3236 0.5361 -0.7797
vn -0.2953 0.6143 -0.7318
vn -0.5962 0.5375 -0.5963
vn -0.5633 0.6045 -0.5633
vn 0.2794 0.7497 -0.5999
vn 0.5115 0.6905 -0.5115
vn -0.0000 0.7723 -0.6353
vn -0.2794 0.7497 -0.5999
vn -0.5115 0.6905 -0.5115
vn -0.7796 0.5361 -0.3237
vn -0.7317 0.6143 -0.2953
vn -0.8453 0.5343 -0.0001
vn -0.7841 0.6206 -0.0000
vn -0.7797 0.5361 0.3236
vn -0.7318 0.6143 0.2953
vn -0.5963 0.5375 0.5962
vn -0.5633 0.6045 0.5633
vn -0.5999 0.7497 -0.2794
vn -0.6353 0.7723 -0.0000
vn -0.5999 0.7497 0.2794
vn -0.5115 0.6905 0.5115
vn -0.3237 0.5361 0.7796
vn -0.2953 0.6143 0.7317
vn -0.0001 0.5343 0.8453
vn -0.0000 0.6206 0.7841
vn 0.3236 0.5361 0.7797
vn 0.2953 0.6143 0.7318
vn 0.5962 0.5375 0.5963
vn 0.5633 0.6045 0.5633
vn -0.2794 0.7497 0.5999
vn -0.0000 0.7723 0.6353
vn 0.2794 0.7497 0.5999
vn 0.5115 0.6905 0.5115
vn 0.7796 0.5361 0.3237
vn 0.7317 0.6143 0.2953
vn 0.8453 0.5343 0.0001
vn 0.7841 0.6206 -0.0000
vn 0.7797 0.5361 -0.3236
vn 0.7318 0.6143 -0.2953
vn 0.5999 0.7497 0.2794
vn 0.6353 0.7723 -0.0000
vn 0.5999 0.7497 -0.2794
vn 0.3299 0.8845 -0.3299
vn -0.0000 0.9345 -0.3561
vn -0.3299 0.8845 -0.3299
vn 0.3561 0.9345 -0.0000
vn -0.0000 1.0000 -0.0000
vn -0.3561 0.9345 -0.0000
vn 0.3299 0.8845 0.3299
vn -0.0000 0.9345 0.3561
vn -0.3299 0.8845 0.3299
vn -0.8603 0.3645 -0.3564
vn -0.6584 0.3645 -0.6585
vn -0.6834 0.2564 -0.6835
vn -0.8930 0.2564 -0.3700
vn 0.3564 0.3645 -0.8603
vn 0.6585 0.3645 -0.6584
vn 0.6835 0.2564 -0.6834
vn 0.3700 0.2564 -0.8930
vn -0.8603 0.3645 0.3563
vn -0.9312 0.3645 -0.0001
vn -0.9666 0.2564 -0.0001
vn -0.8930 0.2564 0.3698
vn -0.3563 0.3645 -0.8603
vn 0.0001 0.3645 -0.9312
vn 0.0001 0.2564 -0.9666
vn -0.3698 0.2564 -0.8930
vn 0.8603 0.3645 -0.3563
vn 0.8930 0.2564 -0.3698
vn 0.6584 0.3645 0.6585
vn 0.3563 0.3645 0.8603
vn 0.3698 0.2564 0.8930
vn 0.6834 0.2564 0.6835
vn 0.9312 0.3645 0.0001
vn 0.8603 0.3645 0.3564
vn 0.8930 0.2564 0.3700
vn 0.9666 0.2564 0.0001
vn -0.6585 0.3645 0.6584
vn -0.6835 0.2564 0.6834
vn -0.0001 0.3645 0.9312
vn -0.3564 0.3645 0.8603
vn -0.3700 0.2564 0.8930
vn -0.0001 0.2564 0.9666
vn 0.9999 -0.0121 0.0001
vn 0.9238 -0.0121 0.3827
vn 0.9170 -0.1217 0.3799
vn 0.9926 -0.1217 0.0001
vn 0.9238 -0.0121 -0.3826
vn 0.9170 -0.1217 -0.3798
vn 0.3827 -0.0121 -0.9238
vn 0.7071 -0.0121 -0.7070
vn 0.7019 -0.1217 -0.7018
vn 0.3799 -0.1217 -0.9170
vn 0.0001 -0.0121 -0.9999
vn 0.0001 -0.1217 -0.9926
vn -0.3826 -0.0121 -0.9238
vn -0.3798 -0.1217 -0.9170
vn -0.7070 -0.0121 -0.7071
vn -0.7018 -0.1217 -0.7019
vn -0.9238 -0.0121 -0.3827
vn -0.9170 -0.1217 -0.3799
vn -0.9999 -0.0121 -0.0001
vn -0.9926 -0.1217 -0.0001
vn -0.9238 -0.0121 0.3826
vn -0.9170 -0.1217 0.3798
vn -0.7071 -0.0121 0.7070
vn -0.7019 -0.1217 0.7018
vn -0.3827 -0.0121 0.9238
vn -0.3799 -0.1217 0.9170
vn -0.0001 -0.0121 0.9999
vn -0.0001 -0.1217 0.9926
vn 0.3826 -0.0121 0.9238
vn 0.3798 -0.1217 0.9170
vn 0.7070 -0.0121 0.7071
vn 0.7018 -0.1217 0.7019
vn -0.3665 -0.2881 0.8847
vn -0.6772 -0.2881 0.6771
vn -0.6674 -0.3304 0.6673
vn -0.3613 -0.3304 0.8720
vn -0.0001 -0.2881 0.9576
vn -0.0001 -0.3304 0.9438
vn 0.3664 -0.2881 0.8847
vn 0.3611 -0.3304 0.8720
vn 0.6771 -0.2881 0.6772
vn 0.6673 -0.3304 0.6674
vn 0.8847 -0.2881 0.3665
vn 0.8720 -0.3304 0.3613
vn 0.9576 -0.2881 0.0001
vn 0.9438 -0.3304 0.0001
vn 0.8847 -0.2881 -0.3664
vn 0.8720 -0.3304 -0.3611
vn 0.3665 -0.2881 -0.8847
vn 0.6772 -0.2881 -0.6771
vn 0.6674 -0.3304 -0.6673
vn 0.3613 -0.3304 -0.8720
vn 0.0001 -0.2881 -0.9576
vn 0.0001 -0.3304 -0.9438
vn -0.3664 -0.2881 -0.8847
vn -0.3611 -0.3304 -0.8720
vn -0.6771 -0.2881 -0.6772
vn -0.6673 -0.3304 -0.6674
vn -0.8847 -0.2881 -0.3665
vn -0.8720 -0.3304 -0.3613
vn -0.9576 -0.2881 -0.0001
vn -0.9438 -0.3304 -0.0001
vn -0.8847 -0.2881 0.3664
vn -0.8720 -0.3304 0.3611
vn -0.9035 -0.2092 0.3742
vn -0.6915 -0.2092 0.6914
vn -0.9779 -0.2092 -0.0001
vn -0.9034 -0.2092 -0.3743
vn -0.6914 -0.2092 -0.6915
vn -0.3742 -0.2092 -0.9035
vn 0.0001 -0.2092 -0.9779
vn 0.3743 -0.2092 -0.9034
vn 0.9035 -0.2092 -0.3742
vn 0.6915 -0.2092 -0.6914
vn 0.9779 -0.2092 0.0001
vn 0.9034 -0.2092 0.3743
vn 0.6914 -0.2092 0.6915
vn 0.3742 -0.2092 0.9035
vn -0.0001 -0.2092 0.9779
vn -0.3743 -0.2092 0.9034
vn 0.7020 0.1193 0.7021
vn 0.9173 0.1193 0.3800
vn 0.3799 0.1193 0.9173
vn -0.0001 0.1193 0.9929
vn -0.3800 0.1193 0.9173
vn -0.7021 0.1193 0.7020
vn -0.9173 0.1193 0.3799
vn -0.9929 0.1193 -0.0001
vn -0.9173 0.1193 -0.3800
vn -0.7020 0.1193 -0.7021
vn -0.3799 0.1193 -0.9173
vn 0.0001 0.1193 -0.9929
vn 0.3800 0.1193 -0.9173
vn 0.9173 0.1193 -0.3799
vn 0.7021 0.1193 -0.7020
vn 0.9929 0.1193 0.0001
vn -0.0001 0.4542 0.8909
vn 0.3409 0.4542 0.8231
vn -0.8230 0.4542 -0.3410
vn -0.8909 0.4542 -0.0001
vn -0.6300 0.4542 0.6299
vn -0.3410 0.4542 0.8230
vn -0.3409 0.4542 -0.8231
vn -0.6299 0.4542 -0.6300
vn 0.8909 0.4542 0.0001
vn 0.8231 0.4542 -0.3409
vn 0.6299 0.4542 0.6300
vn 0.8230 0.4542 0.3410
vn -0.8231 0.4542 0.3409
vn 0.3410 0.4542 -0.8230
vn 0.0001 0.4542 -0.8909
vn 0.6300 0.4542 -0.6299
vn -0.0000 -0.0000 1.0000
vn -0.0001 -0.0000 1.0000
vn -0.9375 -0.3480 -0.0000
vn -0.9853 -0.1706 -0.0000
vn 0.0001 -0.0000 -1.0000
vn 0.9991 0.0422 -0.0000
vn 0.9991 0.0422 0.0053
vn 0.9999 0.0020 0.0107
vn 1.0000 0.0020 -0.0000
vn 0.9991 0.0422 -0.0053
vn 0.9999 0.0020 -0.0107
vn 0.7787 0.6197 -0.0976
vn 0.7825 0.6227 -0.0000
vn 0.8484 0.5294 -0.0000
vn 0.8447 0.5317 -0.0616
vn 0.7787 0.6197 0.0977
vn 0.8447 0.5317 0.0616
vn -0.0000 -0.0000 -1.0000
vn -0.1684 -0.9856 -0.0168
vn -0.1684 -0.9857 -0.0000
vn -0.2799 -0.9600 -0.0000
vn -0.2799 -0.9600 -0.0084
vn -0.1684 -0.9856 0.0167
vn -0.2799 -0.9600 0.0084
vn 0.9392 0.3433 -0.0000
vn 0.9392 0.3433 -0.0117
vn 0.9860 0.1669 -0.0000
vn 0.9392 0.3433 0.0117
vn -0.5298 -0.8481 -0.0000
vn -0.7675 -0.6410 -0.0000
vn -0.0000 -0.3480 -0.9375
vn -0.0000 -0.1706 -0.9853
vn -0.0000 0.0422 0.9991
vn -0.0053 0.0422 0.9991
vn -0.0107 0.0020 0.9999
vn -0.0000 0.0020 1.0000
vn 0.0053 0.0422 0.9991
vn 0.0107 0.0020 0.9999
vn 0.0976 0.6197 0.7787
vn -0.0000 0.6227 0.7825
vn -0.0000 0.5294 0.8484
vn 0.0616 0.5317 0.8447
vn -0.0977 0.6197 0.7787
vn -0.0616 0.5317 0.8447
vn 0.0168 -0.9856 -0.1684
vn -0.0000 -0.9857 -0.1684
vn -0.0000 -0.9600 -0.2799
vn 0.0084 -0.9600 -0.2799
vn -0.0167 -0.9856 -0.1684
vn -0.0084 -0.9600 -0.2799
vn -0.0000 0.3433 0.9392
vn 0.0117 0.3433 0.9392
vn -0.0000 0.1669 0.9860
vn -0.0117 0.3433 0.9392
vn -0.0000 -0.8481 -0.5298
vn -0.0000 -0.6410 -0.7675
vn 0.9375 -0.3480 -0.0000
vn 0.9853 -0.1706 -0.0000
vn -0.9991 0.0422 -0.0000
vn -0.9991 0.0422 -0.0053
vn -0.9999 0.0020 -0.0107
vn -1.0000 0.0020 -0.0000
vn -0.9991 0.0422 0.0053
vn -0.9999 0.0020 0.0107
vn -0.7787 0.6197 0.0976
vn -0.7825 0.6227 -0.0000
vn -0.8484 0.5294 -0.0000
vn -0.8447 0.5317 0.0616
vn -0.7787 0.6197 -0.0977
vn -0.8447 0.5317 -0.0616
vn 0.1684 -0.9856 0.0168
vn 0.1684 -0.9857 -0.0000
vn 0.2799 -0.9600 -0.0000
vn 0.2799 -0.9600 0.0084
vn 0.1684 -0.9856 -0.0167
vn 0.2799 -0.9600 -0.0084
vn -0.9392 0.3433 -0.0000
vn -0.9392 0.3433 0.0117
vn -0.9860 0.1669 -0.0000
vn -0.9392 0.3433 -0.0117
vn 0.5298 -0.8481 -0.0000
vn 0.7675 -0.6410 -0.0000
vt 0.694579 0.846036
vt 0.668001 0.846036
vt 0.668366 0.828904
vt 0.694943 0.828903
vt 0.694945 0.863168
vt 0.668367 0.863168
vt 0.711771 0.846036
vt 0.711770 0.828904
vt 0.249269 0.600845
vt 0.264634 0.573503
vt 0.295244 0.573836
vt 0.295214 0.600415
vt 0.711772 0.863169
vt 0.645662 0.846037
vt 0.646026 0.828905
vt 0.646028 0.863169
vt 0.236246 0.622754
vt 0.295188 0.622754
vt 0.275526 0.553571
vt 0.295263 0.557010
vt 0.731805 0.846035
vt 0.731807 0.863168
vt 0.035515 0.691496
vt 0.050879 0.718838
vt 0.004936 0.718407
vt 0.004906 0.691829
vt 0.731804 0.828902
vt 0.063902 0.740746
vt 0.004961 0.740746
vt 0.024623 0.671563
vt 0.004886 0.675002
vt 0.063832 0.900229
vt 0.063831 0.917362
vt 0.004885 0.917363
vt 0.004885 0.900226
vt 0.063833 0.883096
vt 0.004887 0.883089
vt 0.316376 0.882900
vt 0.314273 0.900241
vt 0.258168 0.900238
vt 0.258631 0.883111
vt 0.316376 0.917583
vt 0.258630 0.917366
vt 0.070886 0.598203
vt 0.141717 0.622912
vt 0.130863 0.644740
vt 0.067217 0.621535
vt 0.216044 0.641865
vt 0.294751 0.655503
vt 0.250231 0.692275
vt 0.196862 0.671297
vt 0.823380 0.828886
vt 0.820022 0.846029
vt 0.799760 0.846030
vt 0.799759 0.828897
vt 0.823380 0.863171
vt 0.799761 0.863163
vt 0.158430 0.504915
vt 0.229263 0.480206
vt 0.232932 0.503541
vt 0.169285 0.526745
vt 0.005393 0.537505
vt 0.084102 0.523867
vt 0.103283 0.553301
vt 0.049914 0.574279
vt 0.197963 0.900236
vt 0.197967 0.883105
vt 0.134971 0.900233
vt 0.134971 0.883100
vt 0.197965 0.917367
vt 0.134970 0.917365
vt 0.106643 0.668910
vt 0.058066 0.643365
vt 0.073365 0.684326
vt 0.043179 0.660426
vt 0.195759 0.718977
vt 0.157460 0.696125
vt 0.134787 0.734806
vt 0.107063 0.711063
vt 0.776090 0.846032
vt 0.776089 0.828899
vt 0.753447 0.846033
vt 0.753446 0.828901
vt 0.776091 0.863165
vt 0.753448 0.863166
vt 0.242083 0.525372
vt 0.193505 0.550915
vt 0.256970 0.542433
vt 0.226783 0.566332
vt 0.142687 0.578130
vt 0.104387 0.600983
vt 0.193084 0.593070
vt 0.165360 0.616814
vt 0.049961 0.176303
vt 0.055358 0.194865
vt 0.026505 0.201775
vt 0.023916 0.187008
vt 0.057358 0.213818
vt 0.027453 0.214457
vt 0.056011 0.232763
vt 0.027140 0.227102
vt 0.051293 0.251266
vt 0.025304 0.241754
vt 0.068094 0.068089
vt 0.054214 0.075027
vt 0.049515 0.060994
vt 0.059395 0.059391
vt 0.040977 0.077020
vt 0.040977 0.061302
vt 0.027741 0.075027
vt 0.032439 0.060994
vt 0.013860 0.068089
vt 0.022559 0.059391
vt 0.043084 0.268804
vt 0.017298 0.254108
vt 0.031417 0.284792
vt 0.009176 0.263740
vt 0.969655 0.685579
vt 0.957032 0.669378
vt 0.982863 0.653293
vt 0.991668 0.662872
vt 0.948058 0.651691
vt 0.974102 0.640987
vt 0.006923 0.054209
vt 0.020956 0.049511
vt 0.004930 0.040973
vt 0.020648 0.040973
vt 0.006923 0.027736
vt 0.020956 0.032435
vt 0.013860 0.013856
vt 0.022559 0.022555
vt 0.942660 0.633129
vt 0.971514 0.626219
vt 0.940660 0.614177
vt 0.970565 0.613537
vt 0.942007 0.595232
vt 0.970878 0.600892
vt 0.946725 0.576728
vt 0.972714 0.586241
vt 0.027741 0.006919
vt 0.032439 0.020952
vt 0.040977 0.004925
vt 0.040977 0.020644
vt 0.054213 0.006919
vt 0.049515 0.020952
vt 0.068094 0.013856
vt 0.059395 0.022555
vt 0.954934 0.559191
vt 0.980720 0.573886
vt 0.966601 0.543203
vt 0.988843 0.564254
vt 0.028363 0.142415
vt 0.040986 0.158617
vt 0.015156 0.174701
vt 0.006351 0.165122
vt 0.075031 0.027736
vt 0.060998 0.032435
vt 0.077025 0.040973
vt 0.061306 0.040973
vt 0.075031 0.054209
vt 0.060998 0.049511
vt 0.049554 0.049550
vt 0.040977 0.049552
vt 0.032400 0.049550
vt 0.049556 0.040973
vt 0.040977 0.040973
vt 0.032398 0.040973
vt 0.049554 0.032396
vt 0.040977 0.032394
vt 0.032400 0.032396
vt 0.140032 0.317670
vt 0.151565 0.282658
vt 0.221334 0.297996
vt 0.211146 0.342197
vt 0.158160 0.178022
vt 0.151497 0.142798
vt 0.222183 0.127510
vt 0.227546 0.170641
vt 0.858120 0.720847
vt 0.875459 0.756879
vt 0.800225 0.792571
vt 0.785416 0.745260
vt 0.158190 0.247783
vt 0.160342 0.212958
vt 0.229164 0.212942
vt 0.227159 0.255155
vt 0.139899 0.107147
vt 0.212603 0.082733
vt 0.846454 0.545336
vt 0.839828 0.580211
vt 0.770860 0.572839
vt 0.776685 0.529999
vt 0.875098 0.475297
vt 0.857987 0.510325
vt 0.786873 0.485798
vt 0.802335 0.439521
vt 0.846522 0.685196
vt 0.775836 0.700484
vt 0.837676 0.615036
vt 0.839858 0.649972
vt 0.770473 0.657354
vt 0.768855 0.615053
vt 0.122560 0.071115
vt 0.197794 0.035423
vt 0.122920 0.352698
vt 0.195685 0.388474
vt 0.629507 0.404896
vt 0.627865 0.462469
vt 0.541013 0.465785
vt 0.534816 0.410414
vt 0.371846 0.061453
vt 0.371285 0.004898
vt 0.463321 0.011590
vt 0.456971 0.065244
vt 0.372733 0.164047
vt 0.372384 0.113989
vt 0.453033 0.115943
vt 0.450936 0.164780
vt 0.372749 0.212980
vt 0.450316 0.212804
vt 0.372349 0.262016
vt 0.451039 0.261017
vt 0.371487 0.312398
vt 0.453171 0.310443
vt 0.370155 0.365526
vt 0.457007 0.362210
vt 0.368513 0.423100
vt 0.463205 0.417581
vt 0.626174 0.766540
vt 0.626734 0.823095
vt 0.534699 0.816403
vt 0.541049 0.762749
vt 0.625636 0.714005
vt 0.544987 0.712051
vt 0.625287 0.663947
vt 0.547085 0.663214
vt 0.625271 0.615014
vt 0.547704 0.615190
vt 0.625671 0.565978
vt 0.546981 0.566977
vt 0.626533 0.515597
vt 0.544849 0.517552
vt 0.395109 0.655883
vt 0.390914 0.694814
vt 0.312900 0.681764
vt 0.316218 0.650558
vt 0.395970 0.616903
vt 0.316490 0.618962
vt 0.393604 0.577725
vt 0.313806 0.587202
vt 0.387885 0.538192
vt 0.308143 0.555520
vt 0.378425 0.498176
vt 0.299361 0.524232
vt 0.364485 0.457609
vt 0.287214 0.493793
vt 0.614972 0.094189
vt 0.627037 0.055148
vt 0.701754 0.086205
vt 0.691680 0.115671
vt 0.602912 0.172111
vt 0.607107 0.133180
vt 0.685121 0.146230
vt 0.681803 0.177436
vt 0.602051 0.211091
vt 0.681531 0.209032
vt 0.604417 0.250270
vt 0.684215 0.240793
vt 0.610136 0.289802
vt 0.689878 0.272474
vt 0.619596 0.329819
vt 0.698660 0.303762
vt 0.633536 0.370386
vt 0.710808 0.334202
vt 0.383048 0.733805
vt 0.370984 0.772846
vt 0.296267 0.741789
vt 0.306342 0.712323
vt 0.460459 0.751145
vt 0.467293 0.705241
vt 0.449814 0.798512
vt 0.539874 0.349742
vt 0.551461 0.398900
vt 0.532261 0.302654
vt 0.527818 0.257040
vt 0.526125 0.212259
vt 0.527051 0.167696
vt 0.537561 0.076849
vt 0.530727 0.122753
vt 0.548207 0.029482
vt 0.458147 0.478253
vt 0.446560 0.429095
vt 0.465760 0.525341
vt 0.470202 0.570955
vt 0.471895 0.615735
vt 0.470970 0.660298
vt 0.704161 0.519972
vt 0.710633 0.469496
vt 0.700417 0.568056
vt 0.699038 0.615014
vt 0.699865 0.661978
vt 0.702919 0.710089
vt 0.708403 0.760644
vt 0.716837 0.815198
vt 0.287386 0.358499
vt 0.277653 0.412911
vt 0.293858 0.308023
vt 0.297602 0.259938
vt 0.298982 0.212980
vt 0.298154 0.166016
vt 0.289616 0.067350
vt 0.295100 0.117905
vt 0.281182 0.012795
vt 0.720366 0.415084
vt 0.895000 0.614714
vt 0.896884 0.588045
vt 0.084419 0.292000
vt 0.069002 0.316580
vt 0.903836 0.668064
vt 0.897280 0.641462
vt 0.101135 0.239949
vt 0.095016 0.266296
vt 0.066852 0.108540
vt 0.083052 0.133777
vt 0.903002 0.561699
vt 0.913600 0.535995
vt 0.914967 0.694217
vt 0.929016 0.511414
vt 0.100739 0.186532
vt 0.103019 0.213281
vt 0.094182 0.159931
vt 0.931166 0.719454
vt 0.992171 0.811016
vt 0.992171 0.839887
vt 0.919600 0.825452
vt 0.981123 0.784343
vt 0.981123 0.866560
vt 0.960708 0.886975
vt 0.934036 0.898023
vt 0.905165 0.898023
vt 0.878492 0.886975
vt 0.858077 0.866560
vt 0.847029 0.839887
vt 0.847029 0.811016
vt 0.858078 0.784343
vt 0.878492 0.763929
vt 0.905165 0.752880
vt 0.934036 0.752880
vt 0.960708 0.763929
vt 0.457113 0.962016
vt 0.483691 0.962016
vt 0.483327 0.979148
vt 0.456749 0.979149
vt 0.456747 0.944883
vt 0.483325 0.944883
vt 0.439922 0.962016
vt 0.439923 0.979149
vt 0.727201 0.249262
vt 0.754543 0.264626
vt 0.754209 0.295235
vt 0.727632 0.295205
vt 0.439921 0.944883
vt 0.506031 0.962015
vt 0.505666 0.979147
vt 0.505665 0.944883
vt 0.705293 0.236239
vt 0.705293 0.295180
vt 0.774475 0.275518
vt 0.771035 0.295255
vt 0.419887 0.962017
vt 0.419886 0.944884
vt 0.921848 0.350136
vt 0.906483 0.322794
vt 0.952426 0.323226
vt 0.952457 0.349803
vt 0.419889 0.979150
vt 0.893460 0.300886
vt 0.952401 0.300886
vt 0.932739 0.370069
vt 0.952476 0.366630
vt 0.069044 0.942233
vt 0.069044 0.959366
vt 0.010099 0.959367
vt 0.010098 0.942231
vt 0.069046 0.925100
vt 0.010100 0.925094
vt 0.321585 0.924903
vt 0.319482 0.942244
vt 0.263377 0.942241
vt 0.263840 0.925114
vt 0.321585 0.959585
vt 0.263840 0.959368
vt 0.886476 0.443429
vt 0.815646 0.418720
vt 0.826500 0.396891
vt 0.890145 0.420097
vt 0.741319 0.399767
vt 0.662612 0.386129
vt 0.707132 0.349357
vt 0.760500 0.370335
vt 0.328312 0.979166
vt 0.331671 0.962024
vt 0.351932 0.962022
vt 0.351934 0.979155
vt 0.328312 0.944881
vt 0.351931 0.944889
vt 0.823130 0.158426
vt 0.847837 0.229256
vt 0.824503 0.232925
vt 0.801300 0.169280
vt 0.790540 0.005392
vt 0.804177 0.084100
vt 0.774744 0.103280
vt 0.753768 0.049912
vt 0.203174 0.942239
vt 0.203177 0.925108
vt 0.140182 0.942236
vt 0.140183 0.925104
vt 0.203176 0.959370
vt 0.140181 0.959368
vt 0.850719 0.372722
vt 0.899297 0.398267
vt 0.883997 0.357306
vt 0.914183 0.381206
vt 0.761604 0.322655
vt 0.799903 0.345507
vt 0.822576 0.306825
vt 0.850299 0.330569
vt 0.375603 0.962020
vt 0.375604 0.979153
vt 0.398246 0.962019
vt 0.398247 0.979151
vt 0.375602 0.944887
vt 0.398245 0.944885
vt 0.802673 0.242076
vt 0.777131 0.193499
vt 0.785612 0.256963
vt 0.761714 0.226776
vt 0.749916 0.142682
vt 0.727063 0.104384
vt 0.734977 0.193078
vt 0.711233 0.165355
vt 0.748632 0.964030
vt 0.722054 0.964031
vt 0.722419 0.946899
vt 0.748996 0.946898
vt 0.748998 0.981162
vt 0.722421 0.981162
vt 0.765823 0.964031
vt 0.765822 0.946898
vt 0.050876 0.396789
vt 0.035511 0.424131
vt 0.004902 0.423797
vt 0.004933 0.397219
vt 0.765825 0.981164
vt 0.699715 0.964031
vt 0.700080 0.946900
vt 0.700081 0.981163
vt 0.063900 0.374880
vt 0.004958 0.374880
vt 0.024620 0.444063
vt 0.004883 0.440623
vt 0.785857 0.964029
vt 0.785859 0.981162
vt 0.140484 0.827495
vt 0.155848 0.854837
vt 0.109905 0.854406
vt 0.109875 0.827828
vt 0.785856 0.946897
vt 0.168871 0.876745
vt 0.109930 0.876745
vt 0.129593 0.807562
vt 0.109856 0.811001
vt 0.977736 0.127830
vt 0.960602 0.127830
vt 0.960601 0.068883
vt 0.977738 0.068881
vt 0.994869 0.127831
vt 0.994876 0.068884
vt 0.995066 0.380378
vt 0.977724 0.378275
vt 0.977727 0.322169
vt 0.994855 0.322632
vt 0.960383 0.380378
vt 0.960600 0.322631
vt 0.175856 0.734202
vt 0.246686 0.758911
vt 0.235832 0.780740
vt 0.172187 0.757535
vt 0.321012 0.777864
vt 0.399720 0.791502
vt 0.355200 0.828274
vt 0.301831 0.807297
vt 0.877431 0.946880
vt 0.874072 0.964023
vt 0.853811 0.964024
vt 0.853810 0.946892
vt 0.877431 0.981165
vt 0.853812 0.981157
vt 0.141714 0.492718
vt 0.070882 0.517426
vt 0.067214 0.494091
vt 0.130860 0.470888
vt 0.294749 0.460128
vt 0.216041 0.473766
vt 0.196860 0.444332
vt 0.250229 0.423355
vt 0.977730 0.261963
vt 0.994862 0.261967
vt 0.977733 0.198969
vt 0.994866 0.198970
vt 0.960599 0.261965
vt 0.960600 0.198969
vt 0.211612 0.804909
vt 0.163035 0.779364
vt 0.178334 0.820325
vt 0.148148 0.796425
vt 0.300727 0.854976
vt 0.262429 0.832124
vt 0.239756 0.870806
vt 0.212033 0.847062
vt 0.830141 0.964026
vt 0.830140 0.946893
vt 0.807499 0.964028
vt 0.807497 0.946895
vt 0.830142 0.981159
vt 0.807500 0.981160
vt 0.058062 0.472261
vt 0.106640 0.446718
vt 0.043175 0.455200
vt 0.073362 0.431301
vt 0.157457 0.419503
vt 0.195757 0.396651
vt 0.107060 0.404564
vt 0.134784 0.380820
vt 0.562726 0.964032
vt 0.536148 0.964032
vt 0.536512 0.946900
vt 0.563090 0.946899
vt 0.563092 0.981164
vt 0.536514 0.981164
vt 0.579917 0.964032
vt 0.579916 0.946899
vt 0.930956 0.050882
vt 0.903613 0.035517
vt 0.903947 0.004907
vt 0.930525 0.004938
vt 0.579918 0.981165
vt 0.513809 0.964033
vt 0.514174 0.946901
vt 0.514175 0.981164
vt 0.952865 0.063905
vt 0.952865 0.004963
vt 0.883681 0.024625
vt 0.887120 0.004888
vt 0.599951 0.964031
vt 0.599952 0.981164
vt 0.372432 0.887495
vt 0.387797 0.914838
vt 0.341853 0.914407
vt 0.341823 0.887829
vt 0.599950 0.946898
vt 0.400820 0.936746
vt 0.341879 0.936746
vt 0.361541 0.867563
vt 0.341804 0.871002
vt 0.632918 0.920232
vt 0.632918 0.937364
vt 0.573975 0.937366
vt 0.573974 0.920230
vt 0.632920 0.903100
vt 0.573976 0.903094
vt 0.885450 0.902901
vt 0.883346 0.920241
vt 0.827244 0.920238
vt 0.827707 0.903112
vt 0.885450 0.937581
vt 0.827706 0.937365
vt 0.407804 0.794202
vt 0.478635 0.818911
vt 0.467781 0.840740
vt 0.404136 0.817535
vt 0.552962 0.837865
vt 0.631670 0.851502
vt 0.587149 0.888274
vt 0.533781 0.867297
vt 0.691525 0.946882
vt 0.688166 0.964024
vt 0.667905 0.964026
vt 0.667903 0.946893
vt 0.691525 0.981166
vt 0.667906 0.981159
vt 0.835025 0.141721
vt 0.810316 0.070888
vt 0.833652 0.067220
vt 0.856855 0.130867
vt 0.867615 0.294758
vt 0.853978 0.216049
vt 0.883412 0.196868
vt 0.904389 0.250238
vt 0.767043 0.920236
vt 0.767046 0.903106
vt 0.704053 0.920234
vt 0.704054 0.903102
vt 0.767045 0.937366
vt 0.704053 0.937366
vt 0.443561 0.864910
vt 0.394984 0.839365
vt 0.410283 0.880326
vt 0.380097 0.856425
vt 0.532677 0.914977
vt 0.494378 0.892125
vt 0.471705 0.930806
vt 0.443981 0.907063
vt 0.644235 0.964028
vt 0.644234 0.946895
vt 0.621592 0.964029
vt 0.621591 0.946897
vt 0.644236 0.981160
vt 0.621593 0.981162
vt 0.855482 0.058068
vt 0.881025 0.106646
vt 0.872543 0.043181
vt 0.896442 0.073368
vt 0.908241 0.157465
vt 0.931094 0.195764
vt 0.923180 0.107067
vt 0.946925 0.134791
s 1
f 9/1/1 12/2/1 6/3/1 2/4/1
f 10/5/1 11/6/1 12/2/1 9/1/1
f 3/7/1 9/1/1 2/4/1 5/8/1
f 57/9/2 44/10/2 2/11/3 6/12/2
f 1/13/1 10/5/1 9/1/1 3/7/1
f 12/2/1 7/14/1 4/15/1 6/3/1
f 11/6/1 8/16/1 7/14/1 12/2/1
f 54/17/2 57/9/2 6/12/2 4/18/2
f 44/10/2 41/19/3 5/20/3 2/11/3
f 51/21/4 38/22/4 1/13/5 3/7/5
f 48/23/6 35/24/6 11/25/6 10/26/6
f 41/27/4 51/21/4 3/7/5 5/8/5
f 35/24/6 47/28/6 8/29/6 11/25/6
f 38/30/6 48/23/6 10/26/6 1/31/6
f 60/32/7 54/33/8 4/34/9 7/35/10
f 47/36/11 60/32/7 7/35/10 8/37/12
f 14/38/13 15/39/14 32/40/15 31/41/16
f 15/39/14 13/42/17 28/43/18 32/40/15
f 16/44/19 19/45/19 23/46/19 25/47/19
f 22/48/19 14/49/19 31/50/19 24/51/19
f 17/52/20 18/53/21 27/54/22 26/55/23
f 19/45/19 22/48/19 24/51/19 23/46/19
f 18/53/21 16/56/24 25/57/25 27/54/22
f 20/58/2 17/59/2 26/60/2 30/61/2
f 13/62/2 21/63/2 29/64/2 28/65/2
f 21/63/2 20/58/2 30/61/2 29/64/2
f 31/41/16 32/40/15 62/66/26 45/67/27
f 45/67/27 62/66/26 61/68/28 46/69/28
f 46/69/28 61/68/28 60/32/7 47/36/11
f 32/40/15 28/43/18 56/70/29 62/66/26
f 62/66/26 56/70/29 55/71/28 61/68/28
f 61/68/28 55/71/28 54/33/8 60/32/7
f 25/47/19 23/46/19 50/72/19 36/73/19
f 36/73/19 50/72/19 49/74/6 37/75/6
f 37/75/6 49/74/6 48/23/6 38/30/6
f 24/51/19 31/50/19 45/76/19 33/77/19
f 33/77/19 45/76/19 46/78/19 34/79/19
f 34/79/19 46/78/19 47/28/6 35/24/6
f 26/55/23 27/54/22 53/80/30 39/81/30
f 39/81/30 53/80/30 52/82/31 40/83/31
f 40/83/31 52/82/31 51/21/4 41/27/4
f 23/46/19 24/51/19 33/77/19 50/72/19
f 50/72/19 33/77/19 34/79/19 49/74/6
f 49/74/6 34/79/19 35/24/6 48/23/6
f 27/54/22 25/57/25 36/84/30 53/80/30
f 53/80/30 36/84/30 37/85/31 52/82/31
f 52/82/31 37/85/31 38/22/4 51/21/4
f 30/61/2 26/60/2 39/86/2 42/87/2
f 42/87/2 39/86/2 40/88/2 43/89/2
f 43/89/2 40/88/2 41/19/3 44/10/2
f 28/65/2 29/64/2 59/90/2 56/91/2
f 56/91/2 59/90/2 58/92/2 55/93/2
f 55/93/2 58/92/2 57/9/2 54/17/2
f 29/64/2 30/61/2 42/87/2 59/90/2
f 59/90/2 42/87/2 43/89/2 58/92/2
f 58/92/2 43/89/2 44/10/2 57/9/2
f 63/94/32 64/95/33 68/96/34 67/97/35
f 64/95/33 65/98/36 69/99/37 68/96/34
f 65/98/36 66/100/38 70/101/39 69/99/37
f 66/100/38 71/102/40 75/103/41 70/101/39
f 67/104/35 68/105/34 96/106/42 95/107/43
f 68/105/34 69/108/37 97/109/44 96/106/42
f 69/108/37 70/110/39 98/111/45 97/109/44
f 70/110/39 75/112/41 99/113/46 98/111/45
f 71/102/40 72/114/47 76/115/48 75/103/41
f 72/114/47 73/116/49 77/117/50 76/115/48
f 73/118/49 74/119/51 78/120/52 77/121/50
f 74/119/51 79/122/53 83/123/54 78/120/52
f 75/112/41 76/124/48 104/125/55 99/113/46
f 76/124/48 77/126/50 109/127/56 104/125/55
f 77/126/50 78/128/52 114/129/57 109/127/56
f 78/128/52 83/130/54 119/131/58 114/129/57
f 79/122/53 80/132/59 84/133/60 83/123/54
f 80/132/59 81/134/61 85/135/62 84/133/60
f 81/134/61 82/136/63 86/137/64 85/135/62
f 82/136/63 87/138/65 91/139/66 86/137/64
f 83/130/54 84/140/60 118/141/67 119/131/58
f 84/140/60 85/142/62 117/143/68 118/141/67
f 85/142/62 86/144/64 116/145/69 117/143/68
f 86/144/64 91/146/66 115/147/70 116/145/69
f 87/138/65 88/148/71 92/149/72 91/139/66
f 88/148/71 89/150/73 93/151/74 92/149/72
f 89/152/73 90/153/75 94/154/76 93/155/74
f 90/153/75 63/94/32 67/97/35 94/154/76
f 91/146/66 92/156/72 110/157/77 115/147/70
f 92/156/72 93/158/74 105/159/78 110/157/77
f 93/158/74 94/160/76 100/161/79 105/159/78
f 94/160/76 67/104/35 95/107/43 100/161/79
f 95/107/43 96/106/42 101/162/80 100/161/79
f 96/106/42 97/109/44 102/163/81 101/162/80
f 97/109/44 98/111/45 103/164/82 102/163/81
f 98/111/45 99/113/46 104/125/55 103/164/82
f 100/161/79 101/162/80 106/165/83 105/159/78
f 101/162/80 102/163/81 107/166/84 106/165/83
f 102/163/81 103/164/82 108/167/85 107/166/84
f 103/164/82 104/125/55 109/127/56 108/167/85
f 105/159/78 106/165/83 111/168/86 110/157/77
f 106/165/83 107/166/84 112/169/87 111/168/86
f 107/166/84 108/167/85 113/170/88 112/169/87
f 108/167/85 109/127/56 114/129/57 113/170/88
f 110/157/77 111/168/86 116/145/69 115/147/70
f 111/168/86 112/169/87 117/143/68 116/145/69
f 112/169/87 113/170/88 118/141/67 117/143/68
f 113/170/88 114/129/57 119/131/58 118/141/67
f 232/171/89 235/172/90 124/173/91 125/174/92
f 236/175/93 239/176/94 120/177/95 121/178/96
f 240/179/97 243/180/98 126/181/99 127/182/100
f 244/183/101 247/184/102 122/185/103 123/186/104
f 239/176/94 249/187/105 135/188/106 120/177/95
f 247/184/102 236/175/93 121/178/96 122/185/103
f 250/189/107 253/190/108 131/191/109 132/192/110
f 254/193/111 257/194/112 133/195/113 134/196/114
f 258/197/115 240/179/97 127/182/100 128/198/116
f 257/194/112 250/189/107 132/192/110 133/195/113
f 260/199/117 263/200/118 129/201/119 130/202/120
f 249/187/105 254/203/111 134/204/114 135/188/106
f 235/172/90 244/183/101 123/186/104 124/173/91
f 263/200/118 258/197/115 128/198/116 129/201/119
f 243/205/98 232/171/89 125/174/92 126/206/99
f 253/190/108 260/199/117 130/202/120 131/191/109
f 200/207/121 203/208/122 149/209/123 150/210/124
f 204/211/125 200/212/121 150/213/124 151/214/126
f 206/215/127 209/216/128 136/217/129 137/218/130
f 209/216/128 204/211/125 151/214/126 136/217/129
f 210/219/131 206/215/127 137/218/130 138/220/132
f 212/221/133 210/219/131 138/220/132 139/222/134
f 214/223/135 212/221/133 139/222/134 140/224/136
f 216/225/137 214/223/135 140/224/136 141/226/138
f 218/227/139 216/225/137 141/226/138 142/228/140
f 220/229/141 218/230/139 142/231/140 143/232/142
f 222/233/143 220/229/141 143/232/142 144/234/144
f 224/235/145 222/233/143 144/234/144 145/236/146
f 226/237/147 224/235/145 145/236/146 146/238/148
f 228/239/149 226/237/147 146/238/148 147/240/150
f 230/241/151 228/239/149 147/240/150 148/242/152
f 203/208/122 230/241/151 148/242/152 149/209/123
f 168/243/153 171/244/154 160/245/155 161/246/156
f 172/247/157 168/243/153 161/246/156 162/248/158
f 174/249/159 172/247/157 162/248/158 163/250/160
f 176/251/161 174/249/159 163/250/160 164/252/162
f 178/253/163 176/251/161 164/252/162 165/254/164
f 180/255/165 178/253/163 165/254/164 166/256/166
f 182/257/167 180/258/165 166/259/166 167/260/168
f 184/261/169 187/262/170 152/263/171 153/264/172
f 187/262/170 182/257/167 167/260/168 152/263/171
f 188/265/173 184/261/169 153/264/172 154/266/174
f 190/267/175 188/265/173 154/266/174 155/268/176
f 192/269/177 190/267/175 155/268/176 156/270/178
f 194/271/179 192/269/177 156/270/178 157/272/180
f 196/273/181 194/271/179 157/272/180 158/274/182
f 198/275/183 196/276/181 158/277/182 159/278/184
f 171/244/154 198/275/183 159/278/184 160/245/155
f 144/234/144 143/232/142 199/279/185 170/280/186
f 170/280/186 199/279/185 198/275/183 171/244/154
f 143/232/142 142/231/140 197/281/187 199/279/185
f 199/279/185 197/281/187 196/276/181 198/275/183
f 142/228/140 141/226/138 195/282/188 197/283/187
f 197/283/187 195/282/188 194/271/179 196/273/181
f 141/226/138 140/224/136 193/284/189 195/282/188
f 195/282/188 193/284/189 192/269/177 194/271/179
f 140/224/136 139/222/134 191/285/190 193/284/189
f 193/284/189 191/285/190 190/267/175 192/269/177
f 139/222/134 138/220/132 189/286/191 191/285/190
f 191/285/190 189/286/191 188/265/173 190/267/175
f 138/220/132 137/218/130 185/287/192 189/286/191
f 189/286/191 185/287/192 184/261/169 188/265/173
f 136/217/129 151/214/126 183/288/193 186/289/194
f 186/289/194 183/288/193 182/257/167 187/262/170
f 137/218/130 136/217/129 186/289/194 185/287/192
f 185/287/192 186/289/194 187/262/170 184/261/169
f 151/214/126 150/213/124 181/290/195 183/288/193
f 183/288/193 181/290/195 180/258/165 182/257/167
f 150/210/124 149/209/123 179/291/196 181/292/195
f 181/292/195 179/291/196 178/253/163 180/255/165
f 149/209/123 148/242/152 177/293/197 179/291/196
f 179/291/196 177/293/197 176/251/161 178/253/163
f 148/242/152 147/240/150 175/294/198 177/293/197
f 177/293/197 175/294/198 174/249/159 176/251/161
f 147/240/150 146/238/148 173/295/199 175/294/198
f 175/294/198 173/295/199 172/247/157 174/249/159
f 146/238/148 145/236/146 169/296/200 173/295/199
f 173/295/199 169/296/200 168/243/153 172/247/157
f 145/236/146 144/234/144 170/280/186 169/296/200
f 169/296/200 170/280/186 171/244/154 168/243/153
f 133/195/113 132/192/110 231/297/201 202/298/202
f 202/298/202 231/297/201 230/241/151 203/208/122
f 132/192/110 131/191/109 229/299/203 231/297/201
f 231/297/201 229/299/203 228/239/149 230/241/151
f 131/191/109 130/202/120 227/300/204 229/299/203
f 229/299/203 227/300/204 226/237/147 228/239/149
f 130/202/120 129/201/119 225/301/205 227/300/204
f 227/300/204 225/301/205 224/235/145 226/237/147
f 129/201/119 128/198/116 223/302/206 225/301/205
f 225/301/205 223/302/206 222/233/143 224/235/145
f 128/198/116 127/182/100 221/303/207 223/302/206
f 223/302/206 221/303/207 220/229/141 222/233/143
f 127/182/100 126/181/99 219/304/208 221/303/207
f 221/303/207 219/304/208 218/230/139 220/229/141
f 126/206/99 125/174/92 217/305/209 219/306/208
f 219/306/208 217/305/209 216/225/137 218/227/139
f 125/174/92 124/173/91 215/307/210 217/305/209
f 217/305/209 215/307/210 214/223/135 216/225/137
f 124/173/91 123/186/104 213/308/211 215/307/210
f 215/307/210 213/308/211 212/221/133 214/223/135
f 123/186/104 122/185/103 211/309/212 213/308/211
f 213/308/211 211/309/212 210/219/131 212/221/133
f 122/185/103 121/178/96 207/310/213 211/309/212
f 211/309/212 207/310/213 206/215/127 210/219/131
f 120/177/95 135/188/106 205/311/214 208/312/215
f 208/312/215 205/311/214 204/211/125 209/216/128
f 121/178/96 120/177/95 208/312/215 207/310/213
f 207/310/213 208/312/215 209/216/128 206/215/127
f 135/188/106 134/204/114 201/313/216 205/311/214
f 205/311/214 201/313/216 200/212/121 204/211/125
f 134/196/114 133/195/113 202/298/202 201/314/216
f 201/314/216 202/298/202 203/208/122 200/207/121
f 82/136/63 81/134/61 261/315/217 252/316/218
f 252/316/218 261/315/217 260/199/117 253/190/108
f 73/116/49 72/114/47 233/317/219 242/318/220
f 242/318/220 233/317/219 232/171/89 243/205/98
f 80/132/59 79/122/53 259/319/221 262/320/222
f 262/320/222 259/319/221 258/197/115 263/200/118
f 71/102/40 66/100/38 245/321/223 234/322/224
f 234/322/224 245/321/223 244/183/101 235/172/90
f 90/153/75 89/152/73 255/323/225 248/324/226
f 248/324/226 255/323/225 254/203/111 249/187/105
f 81/134/61 80/132/59 262/320/222 261/315/217
f 261/315/217 262/320/222 263/200/118 260/199/117
f 88/148/71 87/138/65 251/325/227 256/326/228
f 256/326/228 251/325/227 250/189/107 257/194/112
f 79/122/53 74/119/51 241/327/229 259/319/221
f 259/319/221 241/327/229 240/179/97 258/197/115
f 89/150/73 88/148/71 256/326/228 255/328/225
f 255/328/225 256/326/228 257/194/112 254/193/111
f 87/138/65 82/136/63 252/316/218 251/325/227
f 251/325/227 252/316/218 253/190/108 250/189/107
f 65/98/36 64/95/33 237/329/230 246/330/231
f 246/330/231 237/329/230 236/175/93 247/184/102
f 63/94/32 90/153/75 248/324/226 238/331/232
f 238/331/232 248/324/226 249/187/105 239/176/94
f 66/100/38 65/98/36 246/330/231 245/321/223
f 245/321/223 246/330/231 247/184/102 244/183/101
f 74/119/51 73/118/49 242/332/220 241/327/229
f 241/327/229 242/332/220 243/180/98 240/179/97
f 64/95/33 63/94/32 238/331/232 237/329/230
f 237/329/230 238/331/232 239/176/94 236/175/93
f 72/114/47 71/102/40 234/322/224 233/317/219
f 233/317/219 234/322/224 235/172/90 232/171/89
f 167/333/1 166/334/1 264/335/1 152/336/1
f 165/337/1 164/338/1 264/335/1 166/334/1
f 163/339/1 162/340/1 264/335/1 164/338/1
f 161/341/1 160/342/1 264/335/1 162/340/1
f 159/343/1 158/344/1 264/335/1 160/342/1
f 157/345/1 156/346/1 264/335/1 158/344/1
f 155/347/1 154/348/1 264/335/1 156/346/1
f 153/349/1 152/336/1 264/335/1 154/348/1
f 273/350/1 276/351/1 270/352/1 266/353/1
f 274/354/1 275/355/1 276/351/1 273/350/1
f 267/356/1 273/350/1 266/353/1 269/357/1
f 321/358/233 308/359/233 266/360/234 270/361/233
f 265/362/1 274/354/1 273/350/1 267/356/1
f 276/351/1 271/363/1 268/364/1 270/352/1
f 275/355/1 272/365/1 271/363/1 276/351/1
f 318/366/233 321/358/233 270/361/233 268/367/233
f 308/359/233 305/368/234 269/369/234 266/360/234
f 315/370/235 302/371/235 265/362/236 267/356/236
f 312/372/237 299/373/237 275/374/237 274/375/237
f 305/376/235 315/370/235 267/356/236 269/357/236
f 299/373/237 311/377/237 272/378/237 275/374/237
f 302/379/237 312/372/237 274/375/237 265/380/237
f 324/381/238 318/382/239 268/383/240 271/384/241
f 311/385/242 324/381/238 271/384/241 272/386/243
f 278/387/244 279/388/245 296/389/246 295/390/247
f 279/388/245 277/391/248 292/392/249 296/389/246
f 280/393/250 283/394/250 287/395/250 289/396/250
f 286/397/250 278/398/250 295/399/250 288/400/250
f 281/401/251 282/402/252 291/403/253 290/404/254
f 283/394/250 286/397/250 288/400/250 287/395/250
f 282/402/252 280/405/255 289/406/256 291/403/253
f 284/407/233 281/408/233 290/409/233 294/410/233
f 277/411/233 285/412/233 293/413/233 292/414/233
f 285/412/233 284/407/233 294/410/233 293/413/233
f 295/390/247 296/389/246 326/415/257 309/416/258
f 309/416/258 326/415/257 325/417/259 310/418/259
f 310/418/259 325/417/259 324/381/238 311/385/242
f 296/389/246 292/392/249 320/419/260 326/415/257
f 326/415/257 320/419/260 319/420/259 325/417/259
f 325/417/259 319/420/259 318/382/239 324/381/238
f 289/396/250 287/395/250 314/421/250 300/422/250
f 300/422/250 314/421/250 313/423/237 301/424/237
f 301/424/237 313/423/237 312/372/237 302/379/237
f 288/400/250 295/399/250 309/425/250 297/426/250
f 297/426/250 309/425/250 310/427/250 298/428/250
f 298/428/250 310/427/250 311/377/237 299/373/237
f 290/404/254 291/403/253 317/429/261 303/430/261
f 303/430/261 317/429/261 316/431/262 304/432/262
f 304/432/262 316/431/262 315/370/235 305/376/235
f 287/395/250 288/400/250 297/426/250 314/421/250
f 314/421/250 297/426/250 298/428/250 313/423/237
f 313/423/237 298/428/250 299/373/237 312/372/237
f 291/403/253 289/406/256 300/433/261 317/429/261
f 317/429/261 300/433/261 301/434/262 316/431/262
f 316/431/262 301/434/262 302/371/235 315/370/235
f 294/410/233 290/409/233 303/435/233 306/436/233
f 306/436/233 303/435/233 304/437/233 307/438/233
f 307/438/233 304/437/233 305/368/234 308/359/233
f 292/414/233 293/413/233 323/439/233 320/440/233
f 320/440/233 323/439/233 322/441/233 319/442/233
f 319/442/233 322/441/233 321/358/233 318/366/233
f 293/413/233 294/410/233 306/436/233 323/439/233
f 323/439/233 306/436/233 307/438/233 322/441/233
f 322/441/233 307/438/233 308/359/233 321/358/233
f 335/443/1 338/444/1 332/445/1 328/446/1
f 336/447/1 337/448/1 338/444/1 335/443/1
f 329/449/1 335/443/1 328/446/1 331/450/1
f 383/451/19 370/452/19 328/453/6 332/454/19
f 327/455/1 336/447/1 335/443/1 329/449/1
f 338/444/1 333/456/1 330/457/1 332/445/1
f 337/448/1 334/458/1 333/456/1 338/444/1
f 380/459/19 383/451/19 332/454/19 330/460/19
f 370/452/19 367/461/6 331/462/6 328/453/6
f 377/463/263 364/464/263 327/455/264 329/449/264
f 374/465/3 361/466/3 337/467/3 336/468/3
f 367/469/263 377/463/263 329/449/264 331/450/264
f 361/466/3 373/470/3 334/471/3 337/467/3
f 364/472/3 374/465/3 336/468/3 327/473/3
f 386/474/265 380/475/266 330/476/267 333/477/268
f 373/478/269 386/474/265 333/477/268 334/479/270
f 340/480/271 341/481/272 358/482/273 357/483/274
f 341/481/272 339/484/275 354/485/276 358/482/273
f 342/486/2 345/487/2 349/488/2 351/489/2
f 348/490/2 340/491/2 357/492/2 350/493/2
f 343/494/277 344/495/278 353/496/279 352/497/280
f 345/487/2 348/490/2 350/493/2 349/488/2
f 344/495/278 342/498/281 351/499/282 353/496/279
f 346/500/19 343/501/19 352/502/19 356/503/19
f 339/504/19 347/505/19 355/506/19 354/507/19
f 347/505/19 346/500/19 356/503/19 355/506/19
f 357/483/274 358/482/273 388/508/283 371/509/284
f 371/509/284 388/508/283 387/510/285 372/511/285
f 372/511/285 387/510/285 386/474/265 373/478/269
f 358/482/273 354/485/276 382/512/286 388/508/283
f 388/508/283 382/512/286 381/513/285 387/510/285
f 387/510/285 381/513/285 380/475/266 386/474/265
f 351/489/2 349/488/2 376/514/2 362/515/2
f 362/515/2 376/514/2 375/516/3 363/517/3
f 363/517/3 375/516/3 374/465/3 364/472/3
f 350/493/2 357/492/2 371/518/2 359/519/2
f 359/519/2 371/518/2 372/520/2 360/521/2
f 360/521/2 372/520/2 373/470/3 361/466/3
f 352/497/280 353/496/279 379/522/287 365/523/287
f 365/523/287 379/522/287 378/524/288 366/525/288
f 366/525/288 378/524/288 377/463/263 367/469/263
f 349/488/2 350/493/2 359/519/2 376/514/2
f 376/514/2 359/519/2 360/521/2 375/516/3
f 375/516/3 360/521/2 361/466/3 374/465/3
f 353/496/279 351/499/282 362/526/287 379/522/287
f 379/522/287 362/526/287 363/527/288 378/524/288
f 378/524/288 363/527/288 364/464/263 377/463/263
f 356/503/19 352/502/19 365/528/19 368/529/19
f 368/529/19 365/528/19 366/530/19 369/531/19
f 369/531/19 366/530/19 367/461/6 370/452/19
f 354/507/19 355/506/19 385/532/19 382/533/19
f 382/533/19 385/532/19 384/534/19 381/535/19
f 381/535/19 384/534/19 383/451/19 380/459/19
f 355/506/19 356/503/19 368/529/19 385/532/19
f 385/532/19 368/529/19 369/531/19 384/534/19
f 384/534/19 369/531/19 370/452/19 383/451/19
f 397/536/1 400/537/1 394/538/1 390/539/1
f 398/540/1 399/541/1 400/537/1 397/536/1
f 391/542/1 397/536/1 390/539/1 393/543/1
f 445/544/250 432/545/250 390/546/237 394/547/250
f 389/548/1 398/540/1 397/536/1 391/542/1
f 400/537/1 395/549/1 392/550/1 394/538/1
f 399/541/1 396/551/1 395/549/1 400/537/1
f 442/552/250 445/544/250 394/547/250 392/553/250
f 432/545/250 429/554/237 393/555/237 390/546/237
f 439/556/289 426/557/289 389/548/290 391/542/290
f 436/558/234 423/559/234 399/560/234 398/561/234
f 429/562/289 439/556/289 391/542/290 393/543/290
f 423/559/234 435/563/234 396/564/234 399/560/234
f 426/565/234 436/558/234 398/561/234 389/566/234
f 448/567/291 442/568/292 392/569/293 395/570/294
f 435/571/295 448/567/291 395/570/294 396/572/296
f 402/573/297 403/574/298 420/575/299 419/576/300
f 403/574/298 401/577/301 416/578/302 420/575/299
f 404/579/233 407/580/233 411/581/233 413/582/233
f 410/583/233 402/584/233 419/585/233 412/586/233
f 405/587/303 406/588/304 415/589/305 414/590/306
f 407/580/233 410/583/233 412/586/233 411/581/233
f 406/588/304 404/591/307 413/592/308 415/589/305
f 408/593/250 405/594/250 414/595/250 418/596/250
f 401/597/250 409/598/250 417/599/250 416/600/250
f 409/598/250 408/593/250 418/596/250 417/599/250
f 419/576/300 420/575/299 450/601/309 433/602/310
f 433/602/310 450/601/309 449/603/311 434/604/311
f 434/604/311 449/603/311 448/567/291 435/571/295
f 420/575/299 416/578/302 444/605/312 450/601/309
f 450/601/309 444/605/312 443/606/311 449/603/311
f 449/603/311 443/606/311 442/568/292 448/567/291
f 413/582/233 411/581/233 438/607/233 424/608/233
f 424/608/233 438/607/233 437/609/234 425/610/234
f 425/610/234 437/609/234 436/558/234 426/565/234
f 412/586/233 419/585/233 433/611/233 421/612/233
f 421/612/233 433/611/233 434/613/233 422/614/233
f 422/614/233 434/613/233 435/563/234 423/559/234
f 414/590/306 415/589/305 441/615/313 427/616/313
f 427/616/313 441/615/313 440/617/314 428/618/314
f 428/618/314 440/617/314 439/556/289 429/562/289
f 411/581/233 412/586/233 421/612/233 438/607/233
f 438/607/233 421/612/233 422/614/233 437/609/234
f 437/609/234 422/614/233 423/559/234 436/558/234
f 415/589/305 413/592/308 424/619/313 441/615/313
f 441/615/313 424/619/313 425/620/314 440/617/314
f 440/617/314 425/620/314 426/557/289 439/556/289
f 418/596/250 414/595/250 427/621/250 430/622/250
f 430/622/250 427/621/250 428/623/250 431/624/250
f 431/624/250 428/623/250 429/554/237 432/545/250
f 416/600/250 417/599/250 447/625/250 444/626/250
f 444/626/250 447/625/250 446/627/250 443/628/250
f 443/628/250 446/627/250 445/544/250 442/552/250
f 417/599/250 418/596/250 430/622/250 447/625/250
f 447/625/250 430/622/250 431/624/250 446/627/250
f 446/627/250 431/624/250 432/545/250 445/544/250
